<?xml version="1.0" encoding="UTF-8"?>
<!DOCTYPE svg PUBLIC "-//W3C//DTD SVG 1.1//EN" "http://www.w3.org/Graphics/SVG/1.1/DTD/svg11.dtd">
<svg xmlns="http://www.w3.org/2000/svg" version="1.1" width="3840px" height="2160px" style="shape-rendering:geometricPrecision; text-rendering:geometricPrecision; image-rendering:optimizeQuality; fill-rule:evenodd; clip-rule:evenodd" xmlns:xlink="http://www.w3.org/1999/xlink">
<g><path style="opacity:1" fill="#1b181b" d="M 1971.5,58.5 C 1952.01,59.4971 1932.34,59.8304 1912.5,59.5C 1911.83,59.5 1911.5,59.1667 1911.5,58.5C 1931.5,57.1667 1951.5,57.1667 1971.5,58.5 Z"/></g>
<g><path style="opacity:1" fill="#000000" d="M 1971.5,58.5 C 1973.22,58.6287 1974.88,58.962 1976.5,59.5C 1994.82,62.9664 2013.15,66.9664 2031.5,71.5C 2039.7,73.5678 2047.7,76.2345 2055.5,79.5C 2064.72,84.6076 2074.39,88.9409 2084.5,92.5C 2088.82,93.9922 2092.82,95.9922 2096.5,98.5C 2098.34,100.588 2100.67,101.921 2103.5,102.5C 2108.02,104.043 2112.02,106.377 2115.5,109.5C 2121.66,113.747 2127.99,117.747 2134.5,121.5C 2138.85,123.673 2142.85,126.34 2146.5,129.5C 2147.95,132.264 2150.28,133.931 2153.5,134.5C 2155.75,135.124 2157.42,136.457 2158.5,138.5C 2159.26,140.262 2160.6,141.262 2162.5,141.5C 2164.4,141.738 2165.74,142.738 2166.5,144.5C 2167.54,146.531 2169.21,147.864 2171.5,148.5C 2175.48,151.152 2179.15,154.152 2182.5,157.5C 2183.91,159.914 2185.91,161.581 2188.5,162.5C 2189.91,164.914 2191.91,166.581 2194.5,167.5C 2196.17,168.5 2197.5,169.833 2198.5,171.5C 2200.9,174.903 2203.9,177.57 2207.5,179.5C 2211.17,182.5 2214.5,185.833 2217.5,189.5C 2221.5,194.167 2225.83,198.5 2230.5,202.5C 2233.5,204.833 2236.17,207.5 2238.5,210.5C 2238.5,212.5 2239.5,213.5 2241.5,213.5C 2242.83,214.167 2243.83,215.167 2244.5,216.5C 2245.08,218.749 2246.41,220.415 2248.5,221.5C 2250.17,222.5 2251.5,223.833 2252.5,225.5C 2253.42,228.089 2255.09,230.089 2257.5,231.5C 2258.17,231.5 2258.5,231.833 2258.5,232.5C 2260.43,236.1 2263.1,239.1 2266.5,241.5C 2267.42,244.089 2269.09,246.089 2271.5,247.5C 2272.76,250.427 2274.76,252.761 2277.5,254.5C 2279.59,255.585 2280.92,257.251 2281.5,259.5C 2282.42,262.089 2284.09,264.089 2286.5,265.5C 2287.08,267.749 2288.41,269.415 2290.5,270.5C 2290.74,272.404 2291.74,273.738 2293.5,274.5C 2296.18,277.19 2298.52,280.19 2300.5,283.5C 2300.74,285.404 2301.74,286.738 2303.5,287.5C 2304.17,287.5 2304.5,287.833 2304.5,288.5C 2304.74,290.404 2305.74,291.738 2307.5,292.5C 2308.43,295.37 2310.1,297.704 2312.5,299.5C 2314.26,300.262 2315.26,301.596 2315.5,303.5C 2316.43,306.37 2318.1,308.704 2320.5,310.5C 2320.74,312.404 2321.74,313.738 2323.5,314.5C 2323.74,316.404 2324.74,317.738 2326.5,318.5C 2326.74,320.404 2327.74,321.738 2329.5,322.5C 2331.33,324.147 2332.66,326.147 2333.5,328.5C 2333.84,331.198 2335.18,333.198 2337.5,334.5C 2337.84,337.198 2339.18,339.198 2341.5,340.5C 2345.57,344.976 2348.91,349.976 2351.5,355.5C 2353.09,359.683 2355.42,363.35 2358.5,366.5C 2359.38,369.704 2361.05,372.371 2363.5,374.5C 2363.84,377.198 2365.18,379.198 2367.5,380.5C 2367.27,382.933 2368.27,384.599 2370.5,385.5C 2370.75,387.674 2371.75,389.341 2373.5,390.5C 2373.75,392.674 2374.75,394.341 2376.5,395.5C 2376.75,397.674 2377.75,399.341 2379.5,400.5C 2380.5,404.505 2382.5,407.839 2385.5,410.5C 2387.16,415.827 2389.83,420.493 2393.5,424.5C 2394.08,427.331 2395.41,429.664 2397.5,431.5C 2398.08,434.331 2399.41,436.664 2401.5,438.5C 2402.34,438.842 2402.67,439.508 2402.5,440.5C 2403.08,443.331 2404.41,445.664 2406.5,447.5C 2407.17,447.5 2407.5,447.833 2407.5,448.5C 2407.06,448.435 2406.73,448.601 2406.5,449C 2408.48,453.147 2410.82,456.98 2413.5,460.5C 2414.39,463.948 2416.06,466.948 2418.5,469.5C 2426.99,487.807 2435.99,505.807 2445.5,523.5C 2446.17,523.5 2446.5,523.833 2446.5,524.5C 2445.96,524.56 2445.62,524.893 2445.5,525.5C 2448.61,532.053 2451.94,538.386 2455.5,544.5C 2456.17,544.5 2456.5,544.833 2456.5,545.5C 2455.96,545.56 2455.62,545.893 2455.5,546.5C 2461.48,560.142 2467.81,573.476 2474.5,586.5C 2475.17,586.5 2475.5,586.833 2475.5,587.5C 2474.96,587.56 2474.62,587.893 2474.5,588.5C 2508.05,665.491 2536.05,744.491 2558.5,825.5C 2551.77,829.857 2545.1,834.191 2538.5,838.5C 2489.98,865.512 2441.81,893.178 2394,921.5C 2387.96,903.874 2381.46,886.541 2374.5,869.5C 2369.5,854.675 2364,840.008 2358,825.5C 2355.65,819.462 2352.81,813.796 2349.5,808.5C 2349.5,808.167 2349.5,807.833 2349.5,807.5C 2347.11,801.163 2344.61,794.829 2342,788.5C 2340.97,785.761 2339.47,783.428 2337.5,781.5C 2337.5,781.167 2337.5,780.833 2337.5,780.5C 2336.21,775.247 2333.87,770.581 2330.5,766.5C 2330.5,766.167 2330.5,765.833 2330.5,765.5C 2323.4,749.289 2315.73,733.289 2307.5,717.5C 2307.04,716.702 2306.38,716.369 2305.5,716.5C 2305.5,716.167 2305.5,715.833 2305.5,715.5C 2303.93,710.68 2301.59,706.347 2298.5,702.5C 2297.33,701.486 2296.66,700.153 2296.5,698.5C 2294,692.835 2291,687.502 2287.5,682.5C 2285.84,677.173 2283.17,672.507 2279.5,668.5C 2275.75,664.005 2272.75,659.005 2270.5,653.5C 2270.57,651.973 2269.91,650.973 2268.5,650.5C 2266,647.506 2264,644.173 2262.5,640.5C 2259.16,633.143 2254.83,626.476 2249.5,620.5C 2247.67,618.853 2246.34,616.853 2245.5,614.5C 2245.16,611.802 2243.82,609.802 2241.5,608.5C 2240.09,608.027 2239.43,607.027 2239.5,605.5C 2239.57,603.973 2238.91,602.973 2237.5,602.5C 2235.94,598.608 2233.6,595.275 2230.5,592.5C 2226.45,587.786 2222.79,582.786 2219.5,577.5C 2219.26,575.596 2218.26,574.262 2216.5,573.5C 2214.74,572.738 2213.74,571.404 2213.5,569.5C 2212.92,567.251 2211.59,565.585 2209.5,564.5C 2207.02,562.2 2205.02,559.533 2203.5,556.5C 2202.53,553.865 2200.86,551.865 2198.5,550.5C 2197.24,547.573 2195.24,545.239 2192.5,543.5C 2191.24,540.573 2189.24,538.239 2186.5,536.5C 2184.91,533.236 2182.57,530.569 2179.5,528.5C 2178.24,525.573 2176.24,523.239 2173.5,521.5C 2169.83,518.5 2166.5,515.167 2163.5,511.5C 2159.17,505.167 2153.83,499.833 2147.5,495.5C 2145.83,494.5 2144.5,493.167 2143.5,491.5C 2141.43,488.427 2138.76,486.094 2135.5,484.5C 2133.83,483.5 2132.5,482.167 2131.5,480.5C 2129.76,477.757 2127.43,475.757 2124.5,474.5C 2123.5,474.167 2122.83,473.5 2122.5,472.5C 2118.74,468.408 2114.41,465.074 2109.5,462.5C 2108.42,460.413 2106.75,459.08 2104.5,458.5C 2102.97,458.573 2101.97,457.906 2101.5,456.5C 2099.7,454.1 2097.37,452.433 2094.5,451.5C 2084.64,443.654 2073.97,436.987 2062.5,431.5C 2043.24,419.878 2022.58,411.545 2000.5,406.5C 1985.01,401.522 1969.01,398.855 1952.5,398.5C 1949.29,398.19 1946.29,398.523 1943.5,399.5C 1943.17,399.5 1942.83,399.5 1942.5,399.5C 1939.38,398.521 1936.04,398.187 1932.5,398.5C 1916.02,398.472 1900.02,400.806 1884.5,405.5C 1884.17,405.5 1883.83,405.5 1883.5,405.5C 1858.63,409.898 1835.3,418.231 1813.5,430.5C 1813.59,432.698 1812.92,433.031 1811.5,431.5C 1808.67,432.079 1806.34,433.412 1804.5,435.5C 1799.17,437.159 1794.51,439.826 1790.5,443.5C 1785.15,445.506 1780.48,448.506 1776.5,452.5C 1774.02,455.241 1771.02,457.241 1767.5,458.5C 1765.6,458.738 1764.26,459.738 1763.5,461.5C 1763.03,462.906 1762.03,463.573 1760.5,463.5C 1758.6,463.738 1757.26,464.738 1756.5,466.5C 1754.25,467.08 1752.58,468.413 1751.5,470.5C 1751.5,471.167 1751.17,471.5 1750.5,471.5C 1748.6,471.738 1747.26,472.738 1746.5,474.5C 1746.5,475.167 1746.17,475.5 1745.5,475.5C 1743.25,476.08 1741.58,477.413 1740.5,479.5C 1740.17,480.5 1739.5,481.167 1738.5,481.5C 1736.25,482.08 1734.58,483.413 1733.5,485.5C 1733.17,486.5 1732.5,487.167 1731.5,487.5C 1727.9,489.43 1724.9,492.097 1722.5,495.5C 1721.5,497.167 1720.17,498.5 1718.5,499.5C 1711.5,504.5 1705.5,510.5 1700.5,517.5C 1697.17,521.5 1693.5,525.167 1689.5,528.5C 1687.41,529.585 1686.08,531.251 1685.5,533.5C 1685.17,534.5 1684.5,535.167 1683.5,535.5C 1681.41,536.585 1680.08,538.251 1679.5,540.5C 1679.5,541.167 1679.17,541.5 1678.5,541.5C 1676.09,542.911 1674.42,544.911 1673.5,547.5C 1671.09,548.911 1669.42,550.911 1668.5,553.5C 1665.3,558.569 1661.64,563.235 1657.5,567.5C 1655.74,568.262 1654.74,569.596 1654.5,571.5C 1652.74,572.262 1651.74,573.596 1651.5,575.5C 1649.74,576.262 1648.74,577.596 1648.5,579.5C 1646.74,580.262 1645.74,581.596 1645.5,583.5C 1643.56,587.707 1640.9,591.373 1637.5,594.5C 1636.09,594.973 1635.43,595.973 1635.5,597.5C 1633.65,601.221 1631.31,604.554 1628.5,607.5C 1627.09,607.973 1626.43,608.973 1626.5,610.5C 1625.09,610.973 1624.43,611.973 1624.5,613.5C 1621.76,615.975 1619.76,618.975 1618.5,622.5C 1616.58,627.343 1613.92,631.677 1610.5,635.5C 1609.09,635.973 1608.43,636.973 1608.5,638.5C 1608.25,640.674 1607.25,642.341 1605.5,643.5C 1602.5,646.161 1600.5,649.495 1599.5,653.5C 1598.09,653.973 1597.43,654.973 1597.5,656.5C 1597.67,657.492 1597.34,658.158 1596.5,658.5C 1595.09,658.973 1594.43,659.973 1594.5,661.5C 1594.34,663.153 1593.67,664.486 1592.5,665.5C 1591.09,665.973 1590.43,666.973 1590.5,668.5C 1589.92,671.331 1588.59,673.664 1586.5,675.5C 1584.08,678.008 1582.41,681.008 1581.5,684.5C 1581.5,684.833 1581.5,685.167 1581.5,685.5C 1580.62,685.369 1579.96,685.702 1579.5,686.5C 1577.52,690.111 1575.86,693.777 1574.5,697.5C 1574.34,699.153 1573.67,700.486 1572.5,701.5C 1570.41,703.336 1569.08,705.669 1568.5,708.5C 1568.01,710.819 1567.01,712.819 1565.5,714.5C 1560.79,721.248 1557.13,728.581 1554.5,736.5C 1554.5,736.833 1554.5,737.167 1554.5,737.5C 1551.41,741.347 1549.07,745.68 1547.5,750.5C 1546.77,752.954 1545.77,755.287 1544.5,757.5C 1542.46,758.911 1541.46,760.911 1541.5,763.5C 1541.5,763.833 1541.5,764.167 1541.5,764.5C 1537.22,770.068 1534.22,776.402 1532.5,783.5C 1532.5,783.833 1532.5,784.167 1532.5,784.5C 1527.41,793.015 1523.08,802.015 1519.5,811.5C 1519.62,812.107 1519.96,812.44 1520.5,812.5C 1520.17,813.167 1519.83,813.833 1519.5,814.5C 1517.39,815.784 1516.39,817.784 1516.5,820.5C 1516.5,820.833 1516.5,821.167 1516.5,821.5C 1513.19,826.796 1510.35,832.462 1508,838.5C 1503.38,850.875 1498.88,863.208 1494.5,875.5C 1494.5,875.833 1494.5,876.167 1494.5,876.5C 1492.36,878.7 1490.86,881.367 1490,884.5C 1473.73,929.487 1458.56,974.821 1444.5,1020.5C 1444.54,1021.42 1444.88,1022.08 1445.5,1022.5C 1445.5,1023.17 1445.17,1023.5 1444.5,1023.5C 1405.78,1151.4 1377.61,1281.73 1360,1414.5C 1359.2,1417.7 1359.36,1420.7 1360.5,1423.5C 1358.9,1435.98 1357.23,1448.31 1355.5,1460.5C 1354.44,1465.22 1353.11,1469.89 1351.5,1474.5C 1347.32,1476.09 1343.65,1478.42 1340.5,1481.5C 1337.3,1482.38 1334.63,1484.05 1332.5,1486.5C 1327.29,1488.72 1322.62,1491.72 1318.5,1495.5C 1315.3,1496.38 1312.63,1498.05 1310.5,1500.5C 1305.29,1502.72 1300.62,1505.72 1296.5,1509.5C 1292.32,1511.09 1288.65,1513.42 1285.5,1516.5C 1281.32,1518.09 1277.65,1520.42 1274.5,1523.5C 1272.97,1523.43 1271.97,1524.09 1271.5,1525.5C 1260.82,1530.84 1250.82,1537.17 1241.5,1544.5C 1236.29,1546.72 1231.62,1549.72 1227.5,1553.5C 1220.65,1556.75 1214.32,1560.75 1208.5,1565.5C 1206.97,1565.43 1205.97,1566.09 1205.5,1567.5C 1202.3,1568.38 1199.63,1570.05 1197.5,1572.5C 1194.8,1572.84 1192.8,1574.18 1191.5,1576.5C 1189.33,1576.75 1187.66,1577.75 1186.5,1579.5C 1180.31,1582.42 1174.65,1586.09 1169.5,1590.5C 1165.32,1592.09 1161.65,1594.42 1158.5,1597.5C 1156.74,1597.88 1155.08,1598.54 1153.5,1599.5C 1153.17,1597.67 1152.83,1595.83 1152.5,1594C 1153.53,1585.19 1154.2,1576.36 1154.5,1567.5C 1155.83,1565.83 1155.83,1564.17 1154.5,1562.5C 1155.59,1543.59 1157.59,1524.93 1160.5,1506.5C 1162.3,1500.09 1163.3,1493.42 1163.5,1486.5C 1164.31,1482.22 1164.98,1477.89 1165.5,1473.5C 1170.8,1430.25 1176.8,1387.08 1183.5,1344C 1183.49,1342.62 1183.15,1341.45 1182.5,1340.5C 1182.26,1339.21 1182.6,1338.21 1183.5,1337.5C 1204.68,1209.84 1232.18,1082.84 1266,956.5C 1277.8,914.606 1290.3,872.94 1303.5,831.5C 1307.83,818.182 1312.16,804.849 1316.5,791.5C 1331.11,747.656 1347.11,704.323 1364.5,661.5C 1364.38,660.893 1364.04,660.56 1363.5,660.5C 1363.5,659.833 1363.83,659.5 1364.5,659.5C 1379.01,625.473 1393.84,591.473 1409,557.5C 1426.67,520.835 1444.83,484.501 1463.5,448.5C 1465.59,446.664 1466.92,444.331 1467.5,441.5C 1467.33,440.508 1467.66,439.842 1468.5,439.5C 1472.17,435.493 1474.84,430.827 1476.5,425.5C 1482,417.168 1487,408.501 1491.5,399.5C 1493.95,397.371 1495.62,394.704 1496.5,391.5C 1499.92,387.677 1502.58,383.343 1504.5,378.5C 1506.95,376.371 1508.62,373.704 1509.5,370.5C 1510.91,370.027 1511.57,369.027 1511.5,367.5C 1512.91,367.027 1513.57,366.027 1513.5,364.5C 1515.72,359.291 1518.72,354.624 1522.5,350.5C 1523.91,350.027 1524.57,349.027 1524.5,347.5C 1525.91,347.027 1526.57,346.027 1526.5,344.5C 1529.66,340.852 1532.33,336.852 1534.5,332.5C 1536.84,330.344 1538.84,327.844 1540.5,325C 1540.27,324.601 1539.94,324.435 1539.5,324.5C 1539.83,323.5 1540.5,322.833 1541.5,322.5C 1543.26,321.738 1544.26,320.404 1544.5,318.5C 1544.43,316.973 1545.09,315.973 1546.5,315.5C 1548.26,314.738 1549.26,313.404 1549.5,311.5C 1553.35,307.81 1556.68,303.643 1559.5,299C 1559.27,298.601 1558.94,298.435 1558.5,298.5C 1558.5,297.833 1558.83,297.5 1559.5,297.5C 1560.38,297.631 1561.04,297.298 1561.5,296.5C 1562.55,295.571 1562.55,294.905 1561.5,294.5C 1561.83,293.5 1562.5,292.833 1563.5,292.5C 1565.59,291.415 1566.92,289.749 1567.5,287.5C 1569.26,286.738 1570.26,285.404 1570.5,283.5C 1572.26,282.738 1573.26,281.404 1573.5,279.5C 1575.26,278.738 1576.26,277.404 1576.5,275.5C 1578.53,274.461 1579.86,272.795 1580.5,270.5C 1582.86,269.135 1584.53,267.135 1585.5,264.5C 1587.59,263.415 1588.92,261.749 1589.5,259.5C 1591.18,257.46 1592.84,255.46 1594.5,253.5C 1596.14,253.19 1597.14,252.19 1597.5,250.5C 1599.91,249.089 1601.58,247.089 1602.5,244.5C 1604.86,243.135 1606.53,241.135 1607.5,238.5C 1607.83,237.5 1608.5,236.833 1609.5,236.5C 1612.24,234.761 1614.24,232.427 1615.5,229.5C 1616.5,227.833 1617.83,226.5 1619.5,225.5C 1623.57,222.437 1626.9,218.771 1629.5,214.5C 1632.17,213.833 1633.83,212.167 1634.5,209.5C 1634.5,208.833 1634.83,208.5 1635.5,208.5C 1636.5,208.167 1637.17,207.5 1637.5,206.5C 1639.11,205.994 1639.44,205.327 1638.5,204.5C 1639.85,202.817 1641.52,201.484 1643.5,200.5C 1644.5,200.167 1645.17,199.5 1645.5,198.5C 1646.5,198.167 1647.17,197.5 1647.5,196.5C 1652.5,193.5 1656.5,189.5 1659.5,184.5C 1663.14,181.195 1666.81,177.862 1670.5,174.5C 1672.75,173.92 1674.42,172.587 1675.5,170.5C 1678.76,168.906 1681.43,166.573 1683.5,163.5C 1686.09,162.581 1688.09,160.914 1689.5,158.5C 1690.26,156.738 1691.6,155.738 1693.5,155.5C 1695.75,154.92 1697.42,153.587 1698.5,151.5C 1700.75,150.92 1702.42,149.587 1703.5,147.5C 1705.6,144.738 1708.26,142.738 1711.5,141.5C 1713.4,141.262 1714.74,140.262 1715.5,138.5C 1718.27,135.395 1721.61,133.062 1725.5,131.5C 1728.37,130.567 1730.7,128.9 1732.5,126.5C 1734.15,124.674 1736.15,123.34 1738.5,122.5C 1741.51,121.331 1744.18,119.664 1746.5,117.5C 1748.03,117.573 1749.03,116.906 1749.5,115.5C 1751.67,115.25 1753.34,114.25 1754.5,112.5C 1757.33,111.921 1759.66,110.588 1761.5,108.5C 1761.84,107.662 1762.51,107.328 1763.5,107.5C 1766.15,106.513 1768.81,105.513 1771.5,104.5C 1772.3,104.043 1772.63,103.376 1772.5,102.5C 1774.18,100.992 1776.18,99.9925 1778.5,99.5C 1780.15,99.3404 1781.49,98.6737 1782.5,97.5C 1784.15,97.3404 1785.49,96.6737 1786.5,95.5C 1794.14,92.6772 1801.47,89.3438 1808.5,85.5C 1814.88,83.9332 1820.88,81.5998 1826.5,78.5C 1829.78,78.0719 1832.78,77.0719 1835.5,75.5C 1837.68,74.3228 1840.01,73.3228 1842.5,72.5C 1842.74,73.0967 1843.24,73.4301 1844,73.5C 1866.54,66.6935 1889.37,62.0268 1912.5,59.5C 1932.34,59.8304 1952.01,59.4971 1971.5,58.5 Z"/></g>
<g><path style="opacity:0.508" fill="#151416" d="M 1911.5,58.5 C 1911.5,59.1667 1911.83,59.5 1912.5,59.5C 1889.37,62.0268 1866.54,66.6935 1844,73.5C 1843.24,73.4301 1842.74,73.0967 1842.5,72.5C 1865.02,65.5303 1888.02,60.8636 1911.5,58.5 Z"/></g>
<g><path style="opacity:0.435" fill="#171618" d="M 1976.5,59.5 C 1995.46,61.2233 2013.79,65.2233 2031.5,71.5C 2013.15,66.9664 1994.82,62.9664 1976.5,59.5 Z"/></g>
<g><path style="opacity:0.497" fill="#121113" d="M 1835.5,75.5 C 1832.78,77.0719 1829.78,78.0719 1826.5,78.5C 1829.08,76.5275 1832.08,75.5275 1835.5,75.5 Z"/></g>
<g><path style="opacity:0.6" fill="#161416" d="M 1826.5,78.5 C 1820.88,81.5998 1814.88,83.9332 1808.5,85.5C 1814,82.0927 1820,79.7594 1826.5,78.5 Z"/></g>
<g><path style="opacity:0.531" fill="#161416" d="M 2055.5,79.5 C 2065.59,83.0482 2075.26,87.3815 2084.5,92.5C 2074.39,88.9409 2064.72,84.6076 2055.5,79.5 Z"/></g>
<g><path style="opacity:0.417" fill="#121113" d="M 1808.5,85.5 C 1801.47,89.3438 1794.14,92.6772 1786.5,95.5C 1788.43,93.5259 1790.76,92.0259 1793.5,91C 1798.31,88.5897 1803.31,86.7564 1808.5,85.5 Z"/></g>
<g><path style="opacity:0.737" fill="#171618" d="M 1786.5,95.5 C 1785.49,96.6737 1784.15,97.3404 1782.5,97.5C 1783.29,95.8958 1784.62,95.2291 1786.5,95.5 Z"/></g>
<g><path style="opacity:0.875" fill="#171618" d="M 1782.5,97.5 C 1781.49,98.6737 1780.15,99.3404 1778.5,99.5C 1779.29,97.8958 1780.62,97.2291 1782.5,97.5 Z"/></g>
<g><path style="opacity:0.531" fill="#171518" d="M 2096.5,98.5 C 2099.33,99.0787 2101.66,100.412 2103.5,102.5C 2100.67,101.921 2098.34,100.588 2096.5,98.5 Z"/></g>
<g><path style="opacity:0.969" fill="#100e11" d="M 1772.5,102.5 C 1772.63,103.376 1772.3,104.043 1771.5,104.5C 1768.81,105.513 1766.15,106.513 1763.5,107.5C 1766.01,105.076 1769.01,103.41 1772.5,102.5 Z"/></g>
<g><path style="opacity:0.486" fill="#141215" d="M 1761.5,108.5 C 1759.66,110.588 1757.33,111.921 1754.5,112.5C 1756.34,110.331 1758.67,108.998 1761.5,108.5 Z"/></g>
<g><path style="opacity:0.531" fill="#171517" d="M 1754.5,112.5 C 1753.34,114.25 1751.67,115.25 1749.5,115.5C 1750.66,113.75 1752.33,112.75 1754.5,112.5 Z"/></g>
<g><path style="opacity:0.463" fill="#19181a" d="M 1749.5,115.5 C 1749.03,116.906 1748.03,117.573 1746.5,117.5C 1746.97,116.094 1747.97,115.427 1749.5,115.5 Z"/></g>
<g><path style="opacity:0.497" fill="#151316" d="M 2115.5,109.5 C 2122.69,112.254 2129.02,116.254 2134.5,121.5C 2127.99,117.747 2121.66,113.747 2115.5,109.5 Z"/></g>
<g><path style="opacity:0.497" fill="#151315" d="M 1746.5,117.5 C 1744.18,119.664 1741.51,121.331 1738.5,122.5C 1740.48,119.836 1743.15,118.169 1746.5,117.5 Z"/></g>
<g><path style="opacity:0.497" fill="#151416" d="M 1732.5,126.5 C 1730.7,128.9 1728.37,130.567 1725.5,131.5C 1727.3,129.1 1729.63,127.433 1732.5,126.5 Z"/></g>
<g><path style="opacity:0.545" fill="#121013" d="M 2146.5,129.5 C 2149.14,130.811 2151.47,132.478 2153.5,134.5C 2150.28,133.931 2147.95,132.264 2146.5,129.5 Z"/></g>
<g><path style="opacity:0.497" fill="#171517" d="M 1715.5,138.5 C 1714.74,140.262 1713.4,141.262 1711.5,141.5C 1712.26,139.738 1713.6,138.738 1715.5,138.5 Z"/></g>
<g><path style="opacity:0.497" fill="#171517" d="M 2158.5,138.5 C 2160.4,138.738 2161.74,139.738 2162.5,141.5C 2160.6,141.262 2159.26,140.262 2158.5,138.5 Z"/></g>
<g><path style="opacity:0.497" fill="#151416" d="M 2166.5,144.5 C 2168.75,145.124 2170.42,146.457 2171.5,148.5C 2169.21,147.864 2167.54,146.531 2166.5,144.5 Z"/></g>
<g><path style="opacity:0.497" fill="#161517" d="M 1703.5,147.5 C 1702.42,149.587 1700.75,150.92 1698.5,151.5C 1699.58,149.413 1701.25,148.08 1703.5,147.5 Z"/></g>
<g><path style="opacity:0.969" fill="#121113" d="M 1698.5,151.5 C 1697.42,153.587 1695.75,154.92 1693.5,155.5C 1694.58,153.413 1696.25,152.08 1698.5,151.5 Z"/></g>
<g><path style="opacity:0.486" fill="#171517" d="M 2182.5,157.5 C 2185.09,158.419 2187.09,160.086 2188.5,162.5C 2185.91,161.581 2183.91,159.914 2182.5,157.5 Z"/></g>
<g><path style="opacity:0.486" fill="#151416" d="M 1689.5,158.5 C 1688.09,160.914 1686.09,162.581 1683.5,163.5C 1684.91,161.086 1686.91,159.419 1689.5,158.5 Z"/></g>
<g><path style="opacity:0.447" fill="#121113" d="M 2188.5,162.5 C 2191.09,163.419 2193.09,165.086 2194.5,167.5C 2191.91,166.581 2189.91,164.914 2188.5,162.5 Z"/></g>
<g><path style="opacity:0.49" fill="#141215" d="M 1683.5,163.5 C 1681.43,166.573 1678.76,168.906 1675.5,170.5C 1677.57,167.427 1680.24,165.094 1683.5,163.5 Z"/></g>
<g><path style="opacity:0.463" fill="#131114" d="M 1675.5,170.5 C 1674.42,172.587 1672.75,173.92 1670.5,174.5C 1671.58,172.413 1673.25,171.08 1675.5,170.5 Z"/></g>
<g><path style="opacity:0.473" fill="#121113" d="M 2198.5,171.5 C 2202.1,173.43 2205.1,176.097 2207.5,179.5C 2203.9,177.57 2200.9,174.903 2198.5,171.5 Z"/></g>
<g><path style="opacity:0.969" fill="#141214" d="M 1659.5,184.5 C 1656.5,189.5 1652.5,193.5 1647.5,196.5C 1651.17,192.167 1655.17,188.167 1659.5,184.5 Z"/></g>
<g><path style="opacity:0.447" fill="#131214" d="M 2217.5,189.5 C 2222.83,192.833 2227.17,197.167 2230.5,202.5C 2225.83,198.5 2221.5,194.167 2217.5,189.5 Z"/></g>
<g><path style="opacity:0.557" fill="#211e21" d="M 1647.5,196.5 C 1647.17,197.5 1646.5,198.167 1645.5,198.5C 1645.5,197.167 1646.17,196.5 1647.5,196.5 Z"/></g>
<g><path style="opacity:0.557" fill="#211e21" d="M 1645.5,198.5 C 1645.17,199.5 1644.5,200.167 1643.5,200.5C 1643.5,199.167 1644.17,198.5 1645.5,198.5 Z"/></g>
<g><path style="opacity:0.557" fill="#211e21" d="M 1638.5,204.5 C 1639.44,205.327 1639.11,205.994 1637.5,206.5C 1637.33,205.508 1637.66,204.842 1638.5,204.5 Z"/></g>
<g><path style="opacity:0.557" fill="#211e21" d="M 1637.5,206.5 C 1637.17,207.5 1636.5,208.167 1635.5,208.5C 1635.5,207.167 1636.17,206.5 1637.5,206.5 Z"/></g>
<g><path style="opacity:0.969" fill="#19181a" d="M 2238.5,210.5 C 2239.83,211.167 2240.83,212.167 2241.5,213.5C 2239.5,213.5 2238.5,212.5 2238.5,210.5 Z"/></g>
<g><path style="opacity:0.969" fill="#141315" d="M 1634.5,209.5 C 1633.83,212.167 1632.17,213.833 1629.5,214.5C 1630.83,212.5 1632.5,210.833 1634.5,209.5 Z"/></g>
<g><path style="opacity:0.463" fill="#131114" d="M 2244.5,216.5 C 2246.59,217.585 2247.92,219.251 2248.5,221.5C 2246.41,220.415 2245.08,218.749 2244.5,216.5 Z"/></g>
<g><path style="opacity:0.52" fill="#131214" d="M 1629.5,214.5 C 1626.9,218.771 1623.57,222.437 1619.5,225.5C 1622.1,221.229 1625.43,217.563 1629.5,214.5 Z"/></g>
<g><path style="opacity:0.443" fill="#151315" d="M 2252.5,225.5 C 2254.91,226.911 2256.58,228.911 2257.5,231.5C 2255.09,230.089 2253.42,228.089 2252.5,225.5 Z"/></g>
<g><path style="opacity:0.447" fill="#141215" d="M 1615.5,229.5 C 1614.24,232.427 1612.24,234.761 1609.5,236.5C 1610.76,233.573 1612.76,231.239 1615.5,229.5 Z"/></g>
<g><path style="opacity:0.497" fill="#131114" d="M 2258.5,232.5 C 2261.9,234.9 2264.57,237.9 2266.5,241.5C 2263.1,239.1 2260.43,236.1 2258.5,232.5 Z"/></g>
<g><path style="opacity:0.522" fill="#131114" d="M 1607.5,238.5 C 1606.53,241.135 1604.86,243.135 1602.5,244.5C 1603.44,241.891 1605.11,239.891 1607.5,238.5 Z"/></g>
<g><path style="opacity:0.541" fill="#131114" d="M 2266.5,241.5 C 2268.91,242.911 2270.58,244.911 2271.5,247.5C 2269.09,246.089 2267.42,244.089 2266.5,241.5 Z"/></g>
<g><path style="opacity:0.541" fill="#131114" d="M 1602.5,244.5 C 1601.58,247.089 1599.91,249.089 1597.5,250.5C 1598.42,247.911 1600.09,245.911 1602.5,244.5 Z"/></g>
<g><path style="opacity:0.508" fill="#161416" d="M 2271.5,247.5 C 2274.24,249.239 2276.24,251.573 2277.5,254.5C 2274.76,252.761 2272.76,250.427 2271.5,247.5 Z"/></g>
<g><path style="opacity:0.969" fill="#191719" d="M 1597.5,250.5 C 1597.14,252.19 1596.14,253.19 1594.5,253.5C 1594.86,251.81 1595.86,250.81 1597.5,250.5 Z"/></g>
<g><path style="opacity:0.435" fill="#151416" d="M 1589.5,259.5 C 1588.92,261.749 1587.59,263.415 1585.5,264.5C 1586.08,262.251 1587.41,260.585 1589.5,259.5 Z"/></g>
<g><path style="opacity:0.486" fill="#151416" d="M 2281.5,259.5 C 2283.91,260.911 2285.58,262.911 2286.5,265.5C 2284.09,264.089 2282.42,262.089 2281.5,259.5 Z"/></g>
<g><path style="opacity:0.486" fill="#151416" d="M 1585.5,264.5 C 1584.53,267.135 1582.86,269.135 1580.5,270.5C 1581.44,267.891 1583.11,265.891 1585.5,264.5 Z"/></g>
<g><path style="opacity:0.463" fill="#161517" d="M 2286.5,265.5 C 2288.59,266.585 2289.92,268.251 2290.5,270.5C 2288.41,269.415 2287.08,267.749 2286.5,265.5 Z"/></g>
<g><path style="opacity:0.545" fill="#141214" d="M 1580.5,270.5 C 1579.86,272.795 1578.53,274.461 1576.5,275.5C 1577.12,273.246 1578.46,271.579 1580.5,270.5 Z"/></g>
<g><path style="opacity:0.497" fill="#171517" d="M 2290.5,270.5 C 2292.26,271.262 2293.26,272.596 2293.5,274.5C 2291.74,273.738 2290.74,272.404 2290.5,270.5 Z"/></g>
<g><path style="opacity:0.497" fill="#171517" d="M 1576.5,275.5 C 1576.26,277.404 1575.26,278.738 1573.5,279.5C 1573.74,277.596 1574.74,276.262 1576.5,275.5 Z"/></g>
<g><path style="opacity:0.497" fill="#171517" d="M 1573.5,279.5 C 1573.26,281.404 1572.26,282.738 1570.5,283.5C 1570.74,281.596 1571.74,280.262 1573.5,279.5 Z"/></g>
<g><path style="opacity:0.497" fill="#171517" d="M 1570.5,283.5 C 1570.26,285.404 1569.26,286.738 1567.5,287.5C 1567.74,285.596 1568.74,284.262 1570.5,283.5 Z"/></g>
<g><path style="opacity:0.497" fill="#171517" d="M 2300.5,283.5 C 2302.26,284.262 2303.26,285.596 2303.5,287.5C 2301.74,286.738 2300.74,285.404 2300.5,283.5 Z"/></g>
<g><path style="opacity:0.497" fill="#181618" d="M 1567.5,287.5 C 1566.92,289.749 1565.59,291.415 1563.5,292.5C 1564.08,290.251 1565.41,288.585 1567.5,287.5 Z"/></g>
<g><path style="opacity:0.417" fill="#171517" d="M 2304.5,288.5 C 2306.26,289.262 2307.26,290.596 2307.5,292.5C 2305.74,291.738 2304.74,290.404 2304.5,288.5 Z"/></g>
<g><path style="opacity:0.497" fill="#161517" d="M 2307.5,292.5 C 2309.9,294.296 2311.57,296.63 2312.5,299.5C 2310.1,297.704 2308.43,295.37 2307.5,292.5 Z"/></g>
<g><path style="opacity:0.875" fill="#1b191c" d="M 1561.5,294.5 C 1562.55,294.905 1562.55,295.571 1561.5,296.5C 1561.04,297.298 1560.38,297.631 1559.5,297.5C 1559.93,296.29 1560.6,295.29 1561.5,294.5 Z"/></g>
<g><path style="opacity:0.573" fill="#131114" d="M 2315.5,303.5 C 2317.9,305.296 2319.57,307.63 2320.5,310.5C 2318.1,308.704 2316.43,306.37 2315.5,303.5 Z"/></g>
<g><path style="opacity:0.497" fill="#171517" d="M 1558.5,298.5 C 1558.94,298.435 1559.27,298.601 1559.5,299C 1556.68,303.643 1553.35,307.81 1549.5,311.5C 1552.12,306.886 1555.12,302.553 1558.5,298.5 Z"/></g>
<g><path style="opacity:0.531" fill="#171517" d="M 2320.5,310.5 C 2322.26,311.262 2323.26,312.596 2323.5,314.5C 2321.74,313.738 2320.74,312.404 2320.5,310.5 Z"/></g>
<g><path style="opacity:0.497" fill="#171517" d="M 1549.5,311.5 C 1549.26,313.404 1548.26,314.738 1546.5,315.5C 1546.74,313.596 1547.74,312.262 1549.5,311.5 Z"/></g>
<g><path style="opacity:0.497" fill="#171517" d="M 2323.5,314.5 C 2325.26,315.262 2326.26,316.596 2326.5,318.5C 2324.74,317.738 2323.74,316.404 2323.5,314.5 Z"/></g>
<g><path style="opacity:0.497" fill="#171517" d="M 1544.5,318.5 C 1544.26,320.404 1543.26,321.738 1541.5,322.5C 1541.74,320.596 1542.74,319.262 1544.5,318.5 Z"/></g>
<g><path style="opacity:0.497" fill="#171517" d="M 2326.5,318.5 C 2328.26,319.262 2329.26,320.596 2329.5,322.5C 2327.74,321.738 2326.74,320.404 2326.5,318.5 Z"/></g>
<g><path style="opacity:0.497" fill="#171517" d="M 1539.5,324.5 C 1539.94,324.435 1540.27,324.601 1540.5,325C 1538.84,327.844 1536.84,330.344 1534.5,332.5C 1535.67,329.489 1537.34,326.822 1539.5,324.5 Z"/></g>
<g><path style="opacity:0.497" fill="#151416" d="M 2333.5,328.5 C 2335.33,330.147 2336.66,332.147 2337.5,334.5C 2335.18,333.198 2333.84,331.198 2333.5,328.5 Z"/></g>
<g><path style="opacity:0.497" fill="#151416" d="M 2337.5,334.5 C 2339.33,336.147 2340.66,338.147 2341.5,340.5C 2339.18,339.198 2337.84,337.198 2337.5,334.5 Z"/></g>
<g><path style="opacity:0.463" fill="#161417" d="M 1534.5,332.5 C 1532.33,336.852 1529.66,340.852 1526.5,344.5C 1528.18,339.803 1530.84,335.803 1534.5,332.5 Z"/></g>
<g><path style="opacity:0.463" fill="#19181a" d="M 1526.5,344.5 C 1526.57,346.027 1525.91,347.027 1524.5,347.5C 1524.43,345.973 1525.09,344.973 1526.5,344.5 Z"/></g>
<g><path style="opacity:0.463" fill="#19181a" d="M 1524.5,347.5 C 1524.57,349.027 1523.91,350.027 1522.5,350.5C 1522.43,348.973 1523.09,347.973 1524.5,347.5 Z"/></g>
<g><path style="opacity:0.463" fill="#171618" d="M 2351.5,355.5 C 2354.58,358.65 2356.91,362.317 2358.5,366.5C 2355.42,363.35 2353.09,359.683 2351.5,355.5 Z"/></g>
<g><path style="opacity:0.531" fill="#19181a" d="M 1513.5,364.5 C 1513.57,366.027 1512.91,367.027 1511.5,367.5C 1511.43,365.973 1512.09,364.973 1513.5,364.5 Z"/></g>
<g><path style="opacity:0.463" fill="#19181a" d="M 1511.5,367.5 C 1511.57,369.027 1510.91,370.027 1509.5,370.5C 1509.43,368.973 1510.09,367.973 1511.5,367.5 Z"/></g>
<g><path style="opacity:0.497" fill="#141315" d="M 2358.5,366.5 C 2360.95,368.629 2362.62,371.296 2363.5,374.5C 2361.05,372.371 2359.38,369.704 2358.5,366.5 Z"/></g>
<g><path style="opacity:0.497" fill="#161416" d="M 1509.5,370.5 C 1508.62,373.704 1506.95,376.371 1504.5,378.5C 1505.38,375.296 1507.05,372.629 1509.5,370.5 Z"/></g>
<g><path style="opacity:0.634" fill="#171517" d="M 2363.5,374.5 C 2365.33,376.147 2366.66,378.147 2367.5,380.5C 2365.18,379.198 2363.84,377.198 2363.5,374.5 Z"/></g>
<g><path style="opacity:0.497" fill="#151315" d="M 2367.5,380.5 C 2369.25,381.659 2370.25,383.326 2370.5,385.5C 2368.27,384.599 2367.27,382.933 2367.5,380.5 Z"/></g>
<g><path style="opacity:0.497" fill="#161416" d="M 1504.5,378.5 C 1502.58,383.343 1499.92,387.677 1496.5,391.5C 1498.42,386.657 1501.08,382.323 1504.5,378.5 Z"/></g>
<g><path style="opacity:0.531" fill="#171517" d="M 2370.5,385.5 C 2372.25,386.659 2373.25,388.326 2373.5,390.5C 2371.75,389.341 2370.75,387.674 2370.5,385.5 Z"/></g>
<g><path style="opacity:0.531" fill="#171517" d="M 2373.5,390.5 C 2375.25,391.659 2376.25,393.326 2376.5,395.5C 2374.75,394.341 2373.75,392.674 2373.5,390.5 Z"/></g>
<g><path style="opacity:0.497" fill="#161417" d="M 1496.5,391.5 C 1495.62,394.704 1493.95,397.371 1491.5,399.5C 1492.38,396.296 1494.05,393.629 1496.5,391.5 Z"/></g>
<g><path style="opacity:0.557" fill="#252225" d="M 1932.5,398.5 C 1936.04,398.187 1939.38,398.521 1942.5,399.5C 1938.86,399.643 1935.52,399.643 1932.5,399.5C 1932.5,399.167 1932.5,398.833 1932.5,398.5 Z"/></g>
<g><path style="opacity:0.557" fill="#232023" d="M 1943.5,399.5 C 1946.29,398.523 1949.29,398.19 1952.5,398.5C 1952.5,398.833 1952.5,399.167 1952.5,399.5C 1949.94,400.36 1946.94,400.36 1943.5,399.5 Z"/></g>
<g><path style="opacity:0.531" fill="#171517" d="M 2376.5,395.5 C 2378.25,396.659 2379.25,398.326 2379.5,400.5C 2377.75,399.341 2376.75,397.674 2376.5,395.5 Z"/></g>
<g><path style="opacity:0.514" fill="#141315" d="M 1932.5,398.5 C 1932.5,398.833 1932.5,399.167 1932.5,399.5C 1930,399.581 1927.5,399.581 1925,399.5C 1923.67,400.167 1922.33,400.833 1921,401.5C 1918.91,400.754 1916.91,400.421 1915,400.5C 1904.9,402.024 1894.9,404.024 1885,406.5C 1884.6,406.272 1884.43,405.938 1884.5,405.5C 1900.02,400.806 1916.02,398.472 1932.5,398.5 Z"/></g>
<g><path style="opacity:0.508" fill="#141215" d="M 1952.5,398.5 C 1969.01,398.855 1985.01,401.522 2000.5,406.5C 1997.16,406.533 1994,405.866 1991,404.5C 1989.66,405.214 1988.32,404.88 1987,403.5C 1986.67,403.833 1986.33,404.167 1986,404.5C 1982.43,403.133 1978.76,402.133 1975,401.5C 1974.67,401.833 1974.33,402.167 1974,402.5C 1969.67,401.5 1965.33,400.5 1961,399.5C 1957.91,399.986 1955.07,399.986 1952.5,399.5C 1952.5,399.167 1952.5,398.833 1952.5,398.5 Z"/></g>
<g><path style="opacity:0.325" fill="#141315" d="M 1491.5,399.5 C 1487,408.501 1482,417.168 1476.5,425.5C 1480.47,416.215 1485.47,407.549 1491.5,399.5 Z"/></g>
<g><path style="opacity:0.541" fill="#141315" d="M 2379.5,400.5 C 2382,403.494 2384,406.827 2385.5,410.5C 2382.5,407.839 2380.5,404.505 2379.5,400.5 Z"/></g>
<g><path style="opacity:0.36" fill="#151416" d="M 2000.5,406.5 C 2022.58,411.545 2043.24,419.878 2062.5,431.5C 2042.25,421.976 2021.58,413.642 2000.5,406.5 Z"/></g>
<g><path style="opacity:0.497" fill="#151315" d="M 1883.5,405.5 C 1859.83,411.733 1836.49,420.066 1813.5,430.5C 1835.3,418.231 1858.63,409.898 1883.5,405.5 Z"/></g>
<g><path style="opacity:0.541" fill="#141215" d="M 2385.5,410.5 C 2388.67,414.833 2391.34,419.5 2393.5,424.5C 2389.83,420.493 2387.16,415.827 2385.5,410.5 Z"/></g>
<g><path style="opacity:0.463" fill="#171517" d="M 2393.5,424.5 C 2395.59,426.336 2396.92,428.669 2397.5,431.5C 2395.41,429.664 2394.08,427.331 2393.5,424.5 Z"/></g>
<g><path style="opacity:0.411" fill="#141315" d="M 1476.5,425.5 C 1474.84,430.827 1472.17,435.493 1468.5,439.5C 1470.16,434.173 1472.83,429.507 1476.5,425.5 Z"/></g>
<g><path style="opacity:0.531" fill="#171518" d="M 1811.5,431.5 C 1809.66,433.588 1807.33,434.921 1804.5,435.5C 1806.34,433.412 1808.67,432.079 1811.5,431.5 Z"/></g>
<g><path style="opacity:0.188" fill="#161517" d="M 2062.5,431.5 C 2073.97,436.987 2084.64,443.654 2094.5,451.5C 2083.56,445.221 2072.9,438.555 2062.5,431.5 Z"/></g>
<g><path style="opacity:0.531" fill="#161517" d="M 2397.5,431.5 C 2399.59,433.336 2400.92,435.669 2401.5,438.5C 2399.41,436.664 2398.08,434.331 2397.5,431.5 Z"/></g>
<g><path style="opacity:0.531" fill="#161416" d="M 1804.5,435.5 C 1800.17,438.669 1795.5,441.336 1790.5,443.5C 1794.51,439.826 1799.17,437.159 1804.5,435.5 Z"/></g>
<g><path style="opacity:0.531" fill="#171517" d="M 1467.5,441.5 C 1466.92,444.331 1465.59,446.664 1463.5,448.5C 1464.08,445.669 1465.41,443.336 1467.5,441.5 Z"/></g>
<g><path style="opacity:0.531" fill="#171518" d="M 2402.5,440.5 C 2404.59,442.336 2405.92,444.669 2406.5,447.5C 2404.41,445.664 2403.08,443.331 2402.5,440.5 Z"/></g>
<g><path style="opacity:0.497" fill="#151315" d="M 1790.5,443.5 C 1786.18,446.996 1781.51,449.996 1776.5,452.5C 1780.48,448.506 1785.15,445.506 1790.5,443.5 Z"/></g>
<g><path style="opacity:0.531" fill="#151416" d="M 2094.5,451.5 C 2097.37,452.433 2099.7,454.1 2101.5,456.5C 2098.63,455.567 2096.3,453.9 2094.5,451.5 Z"/></g>
<g><path style="opacity:0.463" fill="#161417" d="M 2407.5,448.5 C 2410.01,452.182 2412.01,456.182 2413.5,460.5C 2410.82,456.98 2408.48,453.147 2406.5,449C 2406.73,448.601 2407.06,448.435 2407.5,448.5 Z"/></g>
<g><path style="opacity:0.497" fill="#171517" d="M 1767.5,458.5 C 1766.74,460.262 1765.4,461.262 1763.5,461.5C 1764.26,459.738 1765.6,458.738 1767.5,458.5 Z"/></g>
<g><path style="opacity:0.497" fill="#161517" d="M 2104.5,458.5 C 2106.75,459.08 2108.42,460.413 2109.5,462.5C 2107.25,461.92 2105.58,460.587 2104.5,458.5 Z"/></g>
<g><path style="opacity:0.486" fill="#151416" d="M 2109.5,462.5 C 2114.41,465.074 2118.74,468.408 2122.5,472.5C 2117.61,469.944 2113.27,466.61 2109.5,462.5 Z"/></g>
<g><path style="opacity:0.497" fill="#171517" d="M 1760.5,463.5 C 1759.74,465.262 1758.4,466.262 1756.5,466.5C 1757.26,464.738 1758.6,463.738 1760.5,463.5 Z"/></g>
<g><path style="opacity:0.463" fill="#161416" d="M 2413.5,460.5 C 2415.92,463.008 2417.59,466.008 2418.5,469.5C 2416.06,466.948 2414.39,463.948 2413.5,460.5 Z"/></g>
<g><path style="opacity:0.508" fill="#161416" d="M 1756.5,466.5 C 1755.42,468.587 1753.75,469.92 1751.5,470.5C 1752.58,468.413 1754.25,467.08 1756.5,466.5 Z"/></g>
<g><path style="opacity:0.497" fill="#171517" d="M 1750.5,471.5 C 1749.74,473.262 1748.4,474.262 1746.5,474.5C 1747.26,472.738 1748.6,471.738 1750.5,471.5 Z"/></g>
<g><path style="opacity:0.508" fill="#161416" d="M 1745.5,475.5 C 1744.42,477.587 1742.75,478.92 1740.5,479.5C 1741.58,477.413 1743.25,476.08 1745.5,475.5 Z"/></g>
<g><path style="opacity:0.539" fill="#131114" d="M 2124.5,474.5 C 2127.43,475.757 2129.76,477.757 2131.5,480.5C 2128.57,479.243 2126.24,477.243 2124.5,474.5 Z"/></g>
<g><path style="opacity:0.541" fill="#131114" d="M 1738.5,481.5 C 1737.42,483.587 1735.75,484.92 1733.5,485.5C 1734.58,483.413 1736.25,482.08 1738.5,481.5 Z"/></g>
<g><path style="opacity:0.463" fill="#151416" d="M 2418.5,469.5 C 2428.54,486.904 2437.54,504.904 2445.5,523.5C 2435.99,505.807 2426.99,487.807 2418.5,469.5 Z"/></g>
<g><path style="opacity:0.476" fill="#151316" d="M 2135.5,484.5 C 2138.76,486.094 2141.43,488.427 2143.5,491.5C 2140.24,489.906 2137.57,487.573 2135.5,484.5 Z"/></g>
<g><path style="opacity:0.486" fill="#141215" d="M 1731.5,487.5 C 1729.1,490.903 1726.1,493.57 1722.5,495.5C 1724.9,492.097 1727.9,489.43 1731.5,487.5 Z"/></g>
<g><path style="opacity:0.483" fill="#121113" d="M 2147.5,495.5 C 2153.83,499.833 2159.17,505.167 2163.5,511.5C 2157.83,506.5 2152.5,501.167 2147.5,495.5 Z"/></g>
<g><path style="opacity:0.529" fill="#121012" d="M 1718.5,499.5 C 1712.83,505.833 1706.83,511.833 1700.5,517.5C 1705.5,510.5 1711.5,504.5 1718.5,499.5 Z"/></g>
<g><path style="opacity:0.524" fill="#131114" d="M 2173.5,521.5 C 2176.24,523.239 2178.24,525.573 2179.5,528.5C 2176.76,526.761 2174.76,524.427 2173.5,521.5 Z"/></g>
<g><path style="opacity:0.541" fill="#131114" d="M 1689.5,528.5 C 1688.92,530.749 1687.59,532.415 1685.5,533.5C 1686.08,531.251 1687.41,529.585 1689.5,528.5 Z"/></g>
<g><path style="opacity:0.49" fill="#141215" d="M 2179.5,528.5 C 2182.57,530.569 2184.91,533.236 2186.5,536.5C 2183.43,534.431 2181.09,531.764 2179.5,528.5 Z"/></g>
<g><path style="opacity:0.522" fill="#131114" d="M 1683.5,535.5 C 1682.92,537.749 1681.59,539.415 1679.5,540.5C 1680.08,538.251 1681.41,536.585 1683.5,535.5 Z"/></g>
<g><path style="opacity:0.48" fill="#161416" d="M 2186.5,536.5 C 2189.24,538.239 2191.24,540.573 2192.5,543.5C 2189.76,541.761 2187.76,539.427 2186.5,536.5 Z"/></g>
<g><path style="opacity:0.463" fill="#161416" d="M 2446.5,524.5 C 2450.05,530.936 2453.05,537.603 2455.5,544.5C 2451.94,538.386 2448.61,532.053 2445.5,525.5C 2445.62,524.893 2445.96,524.56 2446.5,524.5 Z"/></g>
<g><path style="opacity:0.497" fill="#151315" d="M 1678.5,541.5 C 1677.58,544.089 1675.91,546.089 1673.5,547.5C 1674.42,544.911 1676.09,542.911 1678.5,541.5 Z"/></g>
<g><path style="opacity:0.477" fill="#171517" d="M 1952.5,545.5 C 1945.43,546.182 1938.27,546.849 1931,547.5C 1929.05,546.891 1927.22,546.224 1925.5,545.5C 1934.5,544.208 1943.5,544.208 1952.5,545.5 Z"/></g>
<g><path style="opacity:0.497" fill="#161416" d="M 2192.5,543.5 C 2195.24,545.239 2197.24,547.573 2198.5,550.5C 2195.76,548.761 2193.76,546.427 2192.5,543.5 Z"/></g>
<g><path style="opacity:1" fill="#000000" d="M 1925.5,545.5 C 1927.22,546.224 1929.05,546.891 1931,547.5C 1938.27,546.849 1945.43,546.182 1952.5,545.5C 1954.1,545.232 1955.43,545.566 1956.5,546.5C 1972.37,550.013 1987.7,555.347 2002.5,562.5C 2006.98,566.575 2011.98,569.908 2017.5,572.5C 2018.58,574.587 2020.25,575.92 2022.5,576.5C 2023.5,576.833 2024.17,577.5 2024.5,578.5C 2026.12,580.785 2028.12,582.785 2030.5,584.5C 2032.09,587.764 2034.43,590.431 2037.5,592.5C 2039.26,593.262 2040.26,594.596 2040.5,596.5C 2041.43,599.37 2043.1,601.704 2045.5,603.5C 2047.25,604.659 2048.25,606.326 2048.5,608.5C 2057.47,625.759 2062.81,644.092 2064.5,663.5C 2065.39,683.464 2062.39,702.797 2055.5,721.5C 2052.66,725.849 2050.33,730.516 2048.5,735.5C 2047.33,738.511 2045.66,741.178 2043.5,743.5C 2041.74,744.262 2040.74,745.596 2040.5,747.5C 2038.74,748.262 2037.74,749.596 2037.5,751.5C 2034.43,753.569 2032.09,756.236 2030.5,759.5C 2029.17,761.5 2027.5,763.167 2025.5,764.5C 2022.57,765.757 2020.24,767.757 2018.5,770.5C 2016.6,770.738 2015.26,771.738 2014.5,773.5C 2003.44,780.507 1992.44,786.507 1981.5,791.5C 1980.07,792.537 1978.4,793.204 1976.5,793.5C 1976.08,792.876 1975.42,792.543 1974.5,792.5C 1968.32,794.586 1961.98,795.919 1955.5,796.5C 1953.59,796.216 1951.92,796.549 1950.5,797.5C 1948.17,797.5 1945.83,797.5 1943.5,797.5C 1940.17,797.5 1936.83,797.5 1933.5,797.5C 1931.5,797.5 1929.5,797.5 1927.5,797.5C 1913.19,795.515 1899.19,791.848 1885.5,786.5C 1876.22,781.189 1867.22,775.356 1858.5,769C 1852.96,763.297 1847.3,757.797 1841.5,752.5C 1840.88,750.246 1839.54,748.579 1837.5,747.5C 1836.09,747.027 1835.43,746.027 1835.5,744.5C 1834.66,742.147 1833.33,740.147 1831.5,738.5C 1830.92,735.669 1829.59,733.336 1827.5,731.5C 1827.71,729.821 1827.05,728.821 1825.5,728.5C 1825.5,728.167 1825.5,727.833 1825.5,727.5C 1825.71,725.821 1825.05,724.821 1823.5,724.5C 1822.11,721.993 1821.11,719.327 1820.5,716.5C 1820.74,714.102 1820.07,712.102 1818.5,710.5C 1817.06,708.412 1816.39,706.079 1816.5,703.5C 1814.14,691.287 1813.14,678.953 1813.5,666.5C 1813.5,664.833 1813.5,663.167 1813.5,661.5C 1814.42,654.491 1815.42,647.491 1816.5,640.5C 1817.34,639.359 1818.01,638.026 1818.5,636.5C 1818.38,635.893 1818.04,635.56 1817.5,635.5C 1819.13,630.27 1821.13,625.27 1823.5,620.5C 1825.67,617.485 1827.34,614.151 1828.5,610.5C 1828.33,609.508 1828.66,608.842 1829.5,608.5C 1831.25,607.341 1832.25,605.674 1832.5,603.5C 1833.91,603.027 1834.57,602.027 1834.5,600.5C 1836.11,596.949 1838.44,593.949 1841.5,591.5C 1844.24,589.761 1846.24,587.427 1847.5,584.5C 1852.11,581.564 1856.11,577.898 1859.5,573.5C 1862.13,572.527 1864.13,570.86 1865.5,568.5C 1866.8,567.512 1868.13,566.512 1869.5,565.5C 1869.56,566.043 1869.89,566.376 1870.5,566.5C 1886.34,556.669 1903.34,550.003 1921.5,546.5C 1922.57,545.566 1923.9,545.232 1925.5,545.5 Z"/></g>
<g><path style="opacity:0.497" fill="#151315" d="M 1673.5,547.5 C 1672.58,550.089 1670.91,552.089 1668.5,553.5C 1669.42,550.911 1671.09,548.911 1673.5,547.5 Z"/></g>
<g><path style="opacity:0.497" fill="#161517" d="M 1956.5,546.5 C 1973.24,548.079 1988.57,553.412 2002.5,562.5C 1987.7,555.347 1972.37,550.013 1956.5,546.5 Z"/></g>
<g><path style="opacity:0.545" fill="#141214" d="M 2198.5,550.5 C 2200.86,551.865 2202.53,553.865 2203.5,556.5C 2201.11,555.109 2199.44,553.109 2198.5,550.5 Z"/></g>
<g><path style="opacity:0.531" fill="#161517" d="M 1921.5,546.5 C 1903.34,550.003 1886.34,556.669 1870.5,566.5C 1869.89,566.376 1869.56,566.043 1869.5,565.5C 1885.2,554.82 1902.54,548.486 1921.5,546.5 Z"/></g>
<g><path style="opacity:0.669" fill="#161416" d="M 2002.5,562.5 C 2008.05,565.056 2013.05,568.39 2017.5,572.5C 2011.98,569.908 2006.98,566.575 2002.5,562.5 Z"/></g>
<g><path style="opacity:0.497" fill="#181618" d="M 2209.5,564.5 C 2211.59,565.585 2212.92,567.251 2213.5,569.5C 2211.41,568.415 2210.08,566.749 2209.5,564.5 Z"/></g>
<g><path style="opacity:0.497" fill="#171517" d="M 1657.5,567.5 C 1657.26,569.404 1656.26,570.738 1654.5,571.5C 1654.74,569.596 1655.74,568.262 1657.5,567.5 Z"/></g>
<g><path style="opacity:0.463" fill="#161416" d="M 1865.5,568.5 C 1864.13,570.86 1862.13,572.527 1859.5,573.5C 1860.89,571.11 1862.89,569.443 1865.5,568.5 Z"/></g>
<g><path style="opacity:0.497" fill="#171517" d="M 1654.5,571.5 C 1654.26,573.404 1653.26,574.738 1651.5,575.5C 1651.74,573.596 1652.74,572.262 1654.5,571.5 Z"/></g>
<g><path style="opacity:0.435" fill="#131214" d="M 2017.5,572.5 C 2019.75,573.08 2021.42,574.413 2022.5,576.5C 2020.25,575.92 2018.58,574.587 2017.5,572.5 Z"/></g>
<g><path style="opacity:0.497" fill="#171517" d="M 2216.5,573.5 C 2218.26,574.262 2219.26,575.596 2219.5,577.5C 2217.74,576.738 2216.74,575.404 2216.5,573.5 Z"/></g>
<g><path style="opacity:0.497" fill="#171517" d="M 1651.5,575.5 C 1651.26,577.404 1650.26,578.738 1648.5,579.5C 1648.74,577.596 1649.74,576.262 1651.5,575.5 Z"/></g>
<g><path style="opacity:0.443" fill="#141215" d="M 2456.5,545.5 C 2463.33,558.821 2469.33,572.488 2474.5,586.5C 2467.81,573.476 2461.48,560.142 2455.5,546.5C 2455.62,545.893 2455.96,545.56 2456.5,545.5 Z"/></g>
<g><path style="opacity:0.443" fill="#151315" d="M 1463.5,448.5 C 1444.83,484.501 1426.67,520.835 1409,557.5C 1393.84,591.473 1379.01,625.473 1364.5,659.5C 1392.39,586.725 1425.39,516.391 1463.5,448.5 Z"/></g>
<g><path style="opacity:0.969" fill="#1a191b" d="M 2024.5,578.5 C 2027.52,579.522 2029.52,581.522 2030.5,584.5C 2028.12,582.785 2026.12,580.785 2024.5,578.5 Z"/></g>
<g><path style="opacity:0.497" fill="#171517" d="M 1648.5,579.5 C 1648.26,581.404 1647.26,582.738 1645.5,583.5C 1645.74,581.596 1646.74,580.262 1648.5,579.5 Z"/></g>
<g><path style="opacity:0.969" fill="#141315" d="M 1859.5,573.5 C 1856.11,577.898 1852.11,581.564 1847.5,584.5C 1850.89,580.102 1854.89,576.436 1859.5,573.5 Z"/></g>
<g><path style="opacity:0.561" fill="#131214" d="M 1847.5,584.5 C 1846.24,587.427 1844.24,589.761 1841.5,591.5C 1842.76,588.573 1844.76,586.239 1847.5,584.5 Z"/></g>
<g><path style="opacity:0.514" fill="#151315" d="M 2030.5,584.5 C 2033.57,586.569 2035.91,589.236 2037.5,592.5C 2034.43,590.431 2032.09,587.764 2030.5,584.5 Z"/></g>
<g><path style="opacity:0.463" fill="#19181a" d="M 1637.5,594.5 C 1637.57,596.027 1636.91,597.027 1635.5,597.5C 1635.43,595.973 1636.09,594.973 1637.5,594.5 Z"/></g>
<g><path style="opacity:0.497" fill="#171618" d="M 2230.5,592.5 C 2233.6,595.275 2235.94,598.608 2237.5,602.5C 2234.4,599.725 2232.06,596.392 2230.5,592.5 Z"/></g>
<g><path style="opacity:0.531" fill="#19181a" d="M 1834.5,600.5 C 1834.57,602.027 1833.91,603.027 1832.5,603.5C 1832.43,601.973 1833.09,600.973 1834.5,600.5 Z"/></g>
<g><path style="opacity:0.6" fill="#141214" d="M 2040.5,596.5 C 2042.9,598.296 2044.57,600.63 2045.5,603.5C 2043.1,601.704 2041.43,599.37 2040.5,596.5 Z"/></g>
<g><path style="opacity:0.463" fill="#19181a" d="M 2237.5,602.5 C 2238.91,602.973 2239.57,603.973 2239.5,605.5C 2238.09,605.027 2237.43,604.027 2237.5,602.5 Z"/></g>
<g><path style="opacity:0.463" fill="#171517" d="M 1832.5,603.5 C 1832.25,605.674 1831.25,607.341 1829.5,608.5C 1829.75,606.326 1830.75,604.659 1832.5,603.5 Z"/></g>
<g><path style="opacity:0.463" fill="#19181a" d="M 1628.5,607.5 C 1628.57,609.027 1627.91,610.027 1626.5,610.5C 1626.43,608.973 1627.09,607.973 1628.5,607.5 Z"/></g>
<g><path style="opacity:0.497" fill="#151416" d="M 2241.5,608.5 C 2243.82,609.802 2245.16,611.802 2245.5,614.5C 2243.67,612.853 2242.34,610.853 2241.5,608.5 Z"/></g>
<g><path style="opacity:0.531" fill="#19181a" d="M 1626.5,610.5 C 1626.57,612.027 1625.91,613.027 1624.5,613.5C 1624.43,611.973 1625.09,610.973 1626.5,610.5 Z"/></g>
<g><path style="opacity:0.531" fill="#161517" d="M 1828.5,610.5 C 1827.34,614.151 1825.67,617.485 1823.5,620.5C 1824.13,616.58 1825.79,613.247 1828.5,610.5 Z"/></g>
<g><path style="opacity:0.497" fill="#141315" d="M 1624.5,613.5 C 1623.28,617.049 1621.28,620.049 1618.5,622.5C 1619.76,618.975 1621.76,615.975 1624.5,613.5 Z"/></g>
<g><path style="opacity:0.531" fill="#171517" d="M 2048.5,608.5 C 2058.76,625.283 2064.42,643.616 2065.5,663.5C 2065.17,663.5 2064.83,663.5 2064.5,663.5C 2062.81,644.092 2057.47,625.759 2048.5,608.5 Z"/></g>
<g><path style="opacity:0.522" fill="#151315" d="M 2249.5,620.5 C 2254.83,626.476 2259.16,633.143 2262.5,640.5C 2257.67,634.183 2253.34,627.516 2249.5,620.5 Z"/></g>
<g><path style="opacity:0.531" fill="#19181a" d="M 1610.5,635.5 C 1610.57,637.027 1609.91,638.027 1608.5,638.5C 1608.43,636.973 1609.09,635.973 1610.5,635.5 Z"/></g>
<g><path style="opacity:0.417" fill="#171517" d="M 1817.5,635.5 C 1818.04,635.56 1818.38,635.893 1818.5,636.5C 1818.01,638.026 1817.34,639.359 1816.5,640.5C 1816.37,638.708 1816.7,637.042 1817.5,635.5 Z"/></g>
<g><path style="opacity:0.497" fill="#151316" d="M 1605.5,643.5 C 1604,647.173 1602,650.506 1599.5,653.5C 1600.5,649.495 1602.5,646.161 1605.5,643.5 Z"/></g>
<g><path style="opacity:0.531" fill="#19181a" d="M 2268.5,650.5 C 2269.91,650.973 2270.57,651.973 2270.5,653.5C 2269.09,653.027 2268.43,652.027 2268.5,650.5 Z"/></g>
<g><path style="opacity:0.531" fill="#19181a" d="M 1599.5,653.5 C 1599.57,655.027 1598.91,656.027 1597.5,656.5C 1597.43,654.973 1598.09,653.973 1599.5,653.5 Z"/></g>
<g><path style="opacity:0.38" fill="#141315" d="M 1816.5,640.5 C 1815.42,647.491 1814.42,654.491 1813.5,661.5C 1813.17,661.5 1812.83,661.5 1812.5,661.5C 1812.55,654.127 1813.88,647.127 1816.5,640.5 Z"/></g>
<g><path style="opacity:0.531" fill="#19181a" d="M 1596.5,658.5 C 1596.57,660.027 1595.91,661.027 1594.5,661.5C 1594.43,659.973 1595.09,658.973 1596.5,658.5 Z"/></g>
<g><path style="opacity:0.557" fill="#232123" d="M 1812.5,661.5 C 1812.83,661.5 1813.17,661.5 1813.5,661.5C 1813.5,663.167 1813.5,664.833 1813.5,666.5C 1813.17,666.5 1812.83,666.5 1812.5,666.5C 1812.18,665.142 1812.18,663.475 1812.5,661.5 Z"/></g>
<g><path style="opacity:0.744" fill="#151315" d="M 2064.5,663.5 C 2064.83,663.5 2065.17,663.5 2065.5,663.5C 2067.06,683.741 2063.72,703.074 2055.5,721.5C 2062.39,702.797 2065.39,683.464 2064.5,663.5 Z"/></g>
<g><path style="opacity:0.371" fill="#161416" d="M 2475.5,587.5 C 2509.63,664.556 2537.63,743.889 2559.5,825.5C 2559.39,826.442 2559.06,827.275 2558.5,828C 2551.94,831.78 2545.27,835.28 2538.5,838.5C 2545.1,834.191 2551.77,829.857 2558.5,825.5C 2536.05,744.491 2508.05,665.491 2474.5,588.5C 2474.62,587.893 2474.96,587.56 2475.5,587.5 Z"/></g>
<g><path style="opacity:0.531" fill="#19181a" d="M 1592.5,665.5 C 1592.57,667.027 1591.91,668.027 1590.5,668.5C 1590.43,666.973 1591.09,665.973 1592.5,665.5 Z"/></g>
<g><path style="opacity:0.531" fill="#161417" d="M 1586.5,675.5 C 1585.59,678.992 1583.92,681.992 1581.5,684.5C 1582.41,681.008 1584.08,678.008 1586.5,675.5 Z"/></g>
<g><path style="opacity:0.463" fill="#161417" d="M 2279.5,668.5 C 2283.17,672.507 2285.84,677.173 2287.5,682.5C 2284.33,678.167 2281.66,673.5 2279.5,668.5 Z"/></g>
<g><path style="opacity:0.367" fill="#151316" d="M 1812.5,666.5 C 1812.83,666.5 1813.17,666.5 1813.5,666.5C 1813.14,678.953 1814.14,691.287 1816.5,703.5C 1813.96,695.262 1812.29,686.762 1811.5,678C 1811.25,674.279 1811.58,670.446 1812.5,666.5 Z"/></g>
<g><path style="opacity:0.463" fill="#151416" d="M 2287.5,682.5 C 2291,687.502 2294,692.835 2296.5,698.5C 2292.49,693.823 2289.49,688.489 2287.5,682.5 Z"/></g>
<g><path style="opacity:0.531" fill="#151416" d="M 1581.5,685.5 C 1579.66,689.864 1577.32,693.864 1574.5,697.5C 1575.86,693.777 1577.52,690.111 1579.5,686.5C 1579.96,685.702 1580.62,685.369 1581.5,685.5 Z"/></g>
<g><path style="opacity:0.541" fill="#151416" d="M 1363.5,660.5 C 1364.04,660.56 1364.38,660.893 1364.5,661.5C 1347.11,704.323 1331.11,747.656 1316.5,791.5C 1316.17,791.5 1315.83,791.5 1315.5,791.5C 1329.92,747.237 1345.92,703.571 1363.5,660.5 Z"/></g>
<g><path style="opacity:0.531" fill="#171518" d="M 1572.5,701.5 C 1571.92,704.331 1570.59,706.664 1568.5,708.5C 1569.08,705.669 1570.41,703.336 1572.5,701.5 Z"/></g>
<g><path style="opacity:0.531" fill="#151416" d="M 2298.5,702.5 C 2301.59,706.347 2303.93,710.68 2305.5,715.5C 2302.41,711.653 2300.07,707.32 2298.5,702.5 Z"/></g>
<g><path style="opacity:0.417" fill="#161517" d="M 1818.5,710.5 C 1820.07,712.102 1820.74,714.102 1820.5,716.5C 1819.61,714.709 1818.61,712.876 1817.5,711C 1817.73,710.601 1818.06,710.435 1818.5,710.5 Z"/></g>
<g><path style="opacity:0.969" fill="#171517" d="M 1823.5,724.5 C 1825.05,724.821 1825.71,725.821 1825.5,727.5C 1824.6,726.71 1823.93,725.71 1823.5,724.5 Z"/></g>
<g><path style="opacity:0.806" fill="#151316" d="M 1565.5,714.5 C 1562.34,722.151 1558.67,729.484 1554.5,736.5C 1557.13,728.581 1560.79,721.248 1565.5,714.5 Z"/></g>
<g><path style="opacity:0.969" fill="#171517" d="M 1825.5,728.5 C 1827.05,728.821 1827.71,729.821 1827.5,731.5C 1826.6,730.71 1825.93,729.71 1825.5,728.5 Z"/></g>
<g><path style="opacity:0.463" fill="#151316" d="M 2055.5,721.5 C 2054.21,726.753 2051.87,731.419 2048.5,735.5C 2050.33,730.516 2052.66,725.849 2055.5,721.5 Z"/></g>
<g><path style="opacity:0.531" fill="#161417" d="M 1827.5,731.5 C 1829.59,733.336 1830.92,735.669 1831.5,738.5C 1829.97,736.645 1828.3,734.812 1826.5,733C 1827.06,732.617 1827.39,732.117 1827.5,731.5 Z"/></g>
<g><path style="opacity:0.435" fill="#141315" d="M 1831.5,738.5 C 1833.33,740.147 1834.66,742.147 1835.5,744.5C 1833.2,743.267 1831.87,741.267 1831.5,738.5 Z"/></g>
<g><path style="opacity:0.371" fill="#121113" d="M 1554.5,737.5 C 1552.93,742.32 1550.59,746.653 1547.5,750.5C 1549.07,745.68 1551.41,741.347 1554.5,737.5 Z"/></g>
<g><path style="opacity:0.497" fill="#171517" d="M 2043.5,743.5 C 2043.26,745.404 2042.26,746.738 2040.5,747.5C 2040.74,745.596 2041.74,744.262 2043.5,743.5 Z"/></g>
<g><path style="opacity:0.6" fill="#141215" d="M 2305.5,716.5 C 2306.38,716.369 2307.04,716.702 2307.5,717.5C 2315.73,733.289 2323.4,749.289 2330.5,765.5C 2321.91,749.326 2313.58,732.993 2305.5,716.5 Z"/></g>
<g><path style="opacity:0.394" fill="#151416" d="M 1837.5,747.5 C 1839.54,748.579 1840.88,750.246 1841.5,752.5C 1839.47,751.461 1838.14,749.795 1837.5,747.5 Z"/></g>
<g><path style="opacity:0.497" fill="#171517" d="M 2040.5,747.5 C 2040.26,749.404 2039.26,750.738 2037.5,751.5C 2037.74,749.596 2038.74,748.262 2040.5,747.5 Z"/></g>
<g><path style="opacity:0.504" fill="#141215" d="M 2037.5,751.5 C 2035.91,754.764 2033.57,757.431 2030.5,759.5C 2032.09,756.236 2034.43,753.569 2037.5,751.5 Z"/></g>
<g><path style="opacity:0.497" fill="#131214" d="M 1544.5,757.5 C 1544.01,759.819 1543.01,761.819 1541.5,763.5C 1541.46,760.911 1542.46,758.911 1544.5,757.5 Z"/></g>
<g><path style="opacity:0.504" fill="#151315" d="M 1841.5,752.5 C 1847.3,757.797 1852.96,763.297 1858.5,769C 1867.22,775.356 1876.22,781.189 1885.5,786.5C 1867.63,779.289 1852.96,767.956 1841.5,752.5 Z"/></g>
<g><path style="opacity:0.497" fill="#151416" d="M 2025.5,764.5 C 2023.76,767.243 2021.43,769.243 2018.5,770.5C 2020.24,767.757 2022.57,765.757 2025.5,764.5 Z"/></g>
<g><path style="opacity:0.463" fill="#171517" d="M 2018.5,770.5 C 2017.74,772.262 2016.4,773.262 2014.5,773.5C 2015.26,771.738 2016.6,770.738 2018.5,770.5 Z"/></g>
<g><path style="opacity:0.531" fill="#161517" d="M 2330.5,766.5 C 2333.87,770.581 2336.21,775.247 2337.5,780.5C 2334.67,776.182 2332.34,771.516 2330.5,766.5 Z"/></g>
<g><path style="opacity:0.463" fill="#161417" d="M 1541.5,764.5 C 1538.74,771.019 1535.74,777.352 1532.5,783.5C 1534.22,776.402 1537.22,770.068 1541.5,764.5 Z"/></g>
<g><path style="opacity:0.497" fill="#151416" d="M 2014.5,773.5 C 2004.89,781.811 1993.89,787.811 1981.5,791.5C 1992.44,786.507 2003.44,780.507 2014.5,773.5 Z"/></g>
<g><path style="opacity:0.417" fill="#1b191b" d="M 1315.5,791.5 C 1315.83,791.5 1316.17,791.5 1316.5,791.5C 1312.16,804.849 1307.83,818.182 1303.5,831.5C 1303.17,831.5 1302.83,831.5 1302.5,831.5C 1306.44,818.006 1310.78,804.672 1315.5,791.5 Z"/></g>
<g><path style="opacity:0.435" fill="#161517" d="M 1885.5,786.5 C 1899.19,791.848 1913.19,795.515 1927.5,797.5C 1926.83,797.5 1926.5,797.833 1926.5,798.5C 1913.65,797.287 1900.98,794.12 1888.5,789C 1887.06,788.623 1886.06,787.79 1885.5,786.5 Z"/></g>
<g><path style="opacity:0.497" fill="#181619" d="M 1976.5,793.5 C 1969.72,795.946 1962.72,797.279 1955.5,797.5C 1955.5,797.167 1955.5,796.833 1955.5,796.5C 1961.98,795.919 1968.32,794.586 1974.5,792.5C 1975.42,792.543 1976.08,792.876 1976.5,793.5 Z"/></g>
<g><path style="opacity:0.524" fill="#121113" d="M 1955.5,796.5 C 1955.5,796.833 1955.5,797.167 1955.5,797.5C 1954.08,798.451 1952.41,798.784 1950.5,798.5C 1950.5,798.167 1950.5,797.833 1950.5,797.5C 1951.92,796.549 1953.59,796.216 1955.5,796.5 Z"/></g>
<g><path style="opacity:0.557" fill="#242124" d="M 1926.5,798.5 C 1926.5,797.833 1926.83,797.5 1927.5,797.5C 1929.5,797.5 1931.5,797.5 1933.5,797.5C 1933.5,797.833 1933.5,798.167 1933.5,798.5C 1931.48,798.715 1929.14,798.715 1926.5,798.5 Z"/></g>
<g><path style="opacity:0.511" fill="#100f11" d="M 1933.5,798.5 C 1933.5,798.167 1933.5,797.833 1933.5,797.5C 1936.83,797.5 1940.17,797.5 1943.5,797.5C 1943.5,797.833 1943.5,798.167 1943.5,798.5C 1940.2,799.747 1936.87,799.747 1933.5,798.5 Z"/></g>
<g><path style="opacity:0.557" fill="#211e21" d="M 1943.5,797.5 C 1945.83,797.5 1948.17,797.5 1950.5,797.5C 1950.5,797.833 1950.5,798.167 1950.5,798.5C 1947.91,799.332 1945.57,799.332 1943.5,798.5C 1943.5,798.167 1943.5,797.833 1943.5,797.5 Z"/></g>
<g><path style="opacity:0.531" fill="#151316" d="M 1532.5,784.5 C 1528.5,793.838 1524.5,803.171 1520.5,812.5C 1519.96,812.44 1519.62,812.107 1519.5,811.5C 1523.08,802.015 1527.41,793.015 1532.5,784.5 Z"/></g>
<g><path style="opacity:0.623" fill="#151316" d="M 2337.5,781.5 C 2339.47,783.428 2340.97,785.761 2342,788.5C 2344.61,794.829 2347.11,801.163 2349.5,807.5C 2344.99,799.142 2340.99,790.475 2337.5,781.5 Z"/></g>
<g><path style="opacity:0.497" fill="#141214" d="M 1519.5,814.5 C 1518.87,816.75 1517.87,818.75 1516.5,820.5C 1516.39,817.784 1517.39,815.784 1519.5,814.5 Z"/></g>
<g><path style="opacity:0.497" fill="#151316" d="M 2349.5,808.5 C 2352.81,813.796 2355.65,819.462 2358,825.5C 2364,840.008 2369.5,854.675 2374.5,869.5C 2365.99,849.323 2357.66,828.99 2349.5,808.5 Z"/></g>
<g><path style="opacity:0.508" fill="#151416" d="M 1516.5,821.5 C 1509.34,839.656 1502.01,857.656 1494.5,875.5C 1498.88,863.208 1503.38,850.875 1508,838.5C 1510.35,832.462 1513.19,826.796 1516.5,821.5 Z"/></g>
<g><path style="opacity:0.531" fill="#151416" d="M 2538.5,838.5 C 2490.79,867.111 2442.62,895.111 2394,922.5C 2393.23,922.355 2392.56,922.022 2392,921.5C 2386.25,904.084 2380.42,886.75 2374.5,869.5C 2381.46,886.541 2387.96,903.874 2394,921.5C 2441.81,893.178 2489.98,865.512 2538.5,838.5 Z"/></g>
<g><path style="opacity:0.497" fill="#161416" d="M 1302.5,831.5 C 1302.83,831.5 1303.17,831.5 1303.5,831.5C 1290.3,872.94 1277.8,914.606 1266,956.5C 1232.18,1082.84 1204.68,1209.84 1183.5,1337.5C 1203.65,1207.26 1231.15,1078.6 1266,951.5C 1277.09,911.061 1289.26,871.061 1302.5,831.5 Z"/></g>
<g><path style="opacity:0.669" fill="#161416" d="M 1494.5,876.5 C 1476.58,924.608 1460.24,973.274 1445.5,1022.5C 1444.88,1022.08 1444.54,1021.42 1444.5,1020.5C 1458.56,974.821 1473.73,929.487 1490,884.5C 1490.86,881.367 1492.36,878.7 1494.5,876.5 Z"/></g>
<g><path style="opacity:0.514" fill="#151416" d="M 1444.5,1023.5 C 1406.37,1154.68 1378.37,1288.01 1360.5,1423.5C 1359.36,1420.7 1359.2,1417.7 1360,1414.5C 1377.61,1281.73 1405.78,1151.4 1444.5,1023.5 Z"/></g>
<g><path style="opacity:0.522" fill="#161416" d="M 1182.5,1340.5 C 1183.15,1341.45 1183.49,1342.62 1183.5,1344C 1176.8,1387.08 1170.8,1430.25 1165.5,1473.5C 1164.83,1473.5 1164.5,1473.17 1164.5,1472.5C 1169.37,1427.76 1175.37,1383.76 1182.5,1340.5 Z"/></g>
<g><path style="opacity:0.497" fill="#171518" d="M 1355.5,1460.5 C 1355.58,1464.9 1355.08,1469.23 1354,1473.5C 1353.33,1474.25 1352.5,1474.59 1351.5,1474.5C 1353.11,1469.89 1354.44,1465.22 1355.5,1460.5 Z"/></g>
<g><path style="opacity:0.573" fill="#151416" d="M 1351.5,1474.5 C 1348.35,1477.58 1344.68,1479.91 1340.5,1481.5C 1343.65,1478.42 1347.32,1476.09 1351.5,1474.5 Z"/></g>
<g><path style="opacity:0.463" fill="#121113" d="M 1164.5,1472.5 C 1164.5,1473.17 1164.83,1473.5 1165.5,1473.5C 1164.98,1477.89 1164.31,1482.22 1163.5,1486.5C 1163.17,1486.5 1162.83,1486.5 1162.5,1486.5C 1162.81,1481.65 1163.48,1476.98 1164.5,1472.5 Z"/></g>
<g><path style="opacity:0.497" fill="#161417" d="M 1340.5,1481.5 C 1338.37,1483.95 1335.7,1485.62 1332.5,1486.5C 1334.63,1484.05 1337.3,1482.38 1340.5,1481.5 Z"/></g>
<g><path style="opacity:0.669" fill="#161417" d="M 1332.5,1486.5 C 1328.38,1490.28 1323.71,1493.28 1318.5,1495.5C 1322.62,1491.72 1327.29,1488.72 1332.5,1486.5 Z"/></g>
<g><path style="opacity:0.497" fill="#141315" d="M 1318.5,1495.5 C 1316.37,1497.95 1313.7,1499.62 1310.5,1500.5C 1312.63,1498.05 1315.3,1496.38 1318.5,1495.5 Z"/></g>
<g><path style="opacity:0.48" fill="#191719" d="M 1162.5,1486.5 C 1162.83,1486.5 1163.17,1486.5 1163.5,1486.5C 1163.3,1493.42 1162.3,1500.09 1160.5,1506.5C 1160.8,1499.79 1161.47,1493.12 1162.5,1486.5 Z"/></g>
<g><path style="opacity:0.573" fill="#161416" d="M 1310.5,1500.5 C 1306.38,1504.28 1301.71,1507.28 1296.5,1509.5C 1300.62,1505.72 1305.29,1502.72 1310.5,1500.5 Z"/></g>
<g><path style="opacity:0.497" fill="#151416" d="M 1296.5,1509.5 C 1293.35,1512.58 1289.68,1514.91 1285.5,1516.5C 1288.65,1513.42 1292.32,1511.09 1296.5,1509.5 Z"/></g>
<g><path style="opacity:0.669" fill="#161416" d="M 1285.5,1516.5 C 1282.35,1519.58 1278.68,1521.91 1274.5,1523.5C 1277.65,1520.42 1281.32,1518.09 1285.5,1516.5 Z"/></g>
<g><path style="opacity:0.463" fill="#19181a" d="M 1274.5,1523.5 C 1274.03,1524.91 1273.03,1525.57 1271.5,1525.5C 1271.97,1524.09 1272.97,1523.43 1274.5,1523.5 Z"/></g>
<g><path style="opacity:0.669" fill="#151315" d="M 1271.5,1525.5 C 1262.04,1532.62 1252.04,1538.95 1241.5,1544.5C 1250.82,1537.17 1260.82,1530.84 1271.5,1525.5 Z"/></g>
<g><path style="opacity:0.669" fill="#161416" d="M 1241.5,1544.5 C 1237.38,1548.28 1232.71,1551.28 1227.5,1553.5C 1231.62,1549.72 1236.29,1546.72 1241.5,1544.5 Z"/></g>
<g><path style="opacity:0.531" fill="#151416" d="M 1227.5,1553.5 C 1221.71,1558.28 1215.37,1562.28 1208.5,1565.5C 1214.32,1560.75 1220.65,1556.75 1227.5,1553.5 Z"/></g>
<g><path style="opacity:0.541" fill="#131214" d="M 1154.5,1562.5 C 1155.83,1564.17 1155.83,1565.83 1154.5,1567.5C 1154.17,1567.5 1153.83,1567.5 1153.5,1567.5C 1153.87,1565.44 1154.21,1563.77 1154.5,1562.5 Z"/></g>
<g><path style="opacity:0.463" fill="#19181a" d="M 1208.5,1565.5 C 1208.03,1566.91 1207.03,1567.57 1205.5,1567.5C 1205.97,1566.09 1206.97,1565.43 1208.5,1565.5 Z"/></g>
<g><path style="opacity:0.497" fill="#141215" d="M 1205.5,1567.5 C 1203.37,1569.95 1200.7,1571.62 1197.5,1572.5C 1199.63,1570.05 1202.3,1568.38 1205.5,1567.5 Z"/></g>
<g><path style="opacity:0.669" fill="#171517" d="M 1197.5,1572.5 C 1195.85,1574.33 1193.85,1575.66 1191.5,1576.5C 1192.8,1574.18 1194.8,1572.84 1197.5,1572.5 Z"/></g>
<g><path style="opacity:0.463" fill="#171517" d="M 1191.5,1576.5 C 1190.34,1578.25 1188.67,1579.25 1186.5,1579.5C 1187.66,1577.75 1189.33,1576.75 1191.5,1576.5 Z"/></g>
<g><path style="opacity:0.563" fill="#161416" d="M 1153.5,1567.5 C 1153.83,1567.5 1154.17,1567.5 1154.5,1567.5C 1154.2,1576.36 1153.53,1585.19 1152.5,1594C 1152.83,1595.83 1153.17,1597.67 1153.5,1599.5C 1155.08,1598.54 1156.74,1597.88 1158.5,1597.5C 1156.85,1599.33 1154.85,1600.66 1152.5,1601.5C 1151.83,1600.5 1151.17,1599.5 1150.5,1598.5C 1151.75,1588.27 1152.75,1577.93 1153.5,1567.5 Z"/></g>
<g><path style="opacity:0.497" fill="#151316" d="M 1186.5,1579.5 C 1181.35,1583.91 1175.69,1587.58 1169.5,1590.5C 1174.65,1586.09 1180.31,1582.42 1186.5,1579.5 Z"/></g>
<g><path style="opacity:0.669" fill="#161416" d="M 1169.5,1590.5 C 1166.35,1593.58 1162.68,1595.91 1158.5,1597.5C 1161.65,1594.42 1165.32,1592.09 1169.5,1590.5 Z"/></g>
<g><path style="opacity:0.557" fill="#232123" d="M 1150.5,1598.5 C 1151.17,1599.5 1151.83,1600.5 1152.5,1601.5C 1151.5,1602.71 1150.5,1602.55 1149.5,1601C 1150.25,1600.33 1150.59,1599.5 1150.5,1598.5 Z"/></g>
<g><path style="opacity:0.537" fill="#100f11" d="M 3184.5,1705.5 C 3179.83,1706.83 3175.17,1706.83 3170.5,1705.5C 3174.73,1704.31 3179.4,1704.31 3184.5,1705.5 Z"/></g>
<g><path style="opacity:1" fill="#181619" d="M 3218.5,1737.5 C 3217.35,1736.15 3216.68,1736.32 3216.5,1738C 3216.64,1739.3 3217.31,1740.13 3218.5,1740.5C 3218.5,1743.17 3218.5,1745.83 3218.5,1748.5C 3216.73,1749.31 3216.23,1750.65 3217,1752.5C 3217.38,1751.94 3217.88,1751.61 3218.5,1751.5C 3212.14,1771.51 3198.48,1782.85 3177.5,1785.5C 3154.99,1782.82 3141.65,1770.32 3137.5,1748C 3137.68,1725.63 3148.68,1711.46 3170.5,1705.5C 3175.17,1706.83 3179.83,1706.83 3184.5,1705.5C 3194.85,1706.61 3203.35,1711.61 3210,1720.5C 3213.39,1725.95 3216.22,1731.62 3218.5,1737.5 Z M 3188.5,1776.5 C 3182.15,1778.06 3176.15,1778.4 3170.5,1777.5C 3148.97,1769.77 3141.14,1754.77 3147,1732.5C 3156.43,1713.75 3171.26,1707.58 3191.5,1714C 3205.29,1721.64 3211.96,1732.97 3211.5,1748C 3209.1,1761.89 3201.43,1771.39 3188.5,1776.5 Z M 3170.5,1728.5 C 3174.18,1728.33 3177.85,1728.5 3181.5,1729C 3187.53,1730.9 3189.03,1734.74 3186,1740.5C 3184.27,1741.46 3182.44,1742.13 3180.5,1742.5C 3177.17,1742.5 3173.83,1742.5 3170.5,1742.5C 3170.5,1737.83 3170.5,1733.17 3170.5,1728.5 Z"/></g>
<g><path style="opacity:0.225" fill="#100f11" d="M 3161.5,1722.5 C 3161.5,1736.87 3161.5,1751.2 3161.5,1765.5C 3160.18,1751.07 3160.18,1736.74 3161.5,1722.5 Z"/></g>
<g><path style="opacity:1" fill="#1a171b" d="M 3195.5,1731.5 C 3194.83,1734.76 3194,1738.09 3193,1741.5C 3190.27,1743.19 3187.44,1744.69 3184.5,1746C 3185.88,1747.33 3187.21,1747.5 3188.5,1746.5C 3191.43,1747.59 3193.59,1749.59 3195,1752.5C 3195.25,1757.04 3195.75,1761.54 3196.5,1766C 3196.17,1766.5 3195.83,1767 3195.5,1767.5C 3192.96,1767.69 3190.3,1767.36 3187.5,1766.5C 3189.81,1752.81 3184.14,1747.14 3170.5,1749.5C 3169.78,1749.08 3169.28,1748.42 3169,1747.5C 3168.18,1753.68 3168.35,1759.68 3169.5,1765.5C 3169.22,1766.29 3168.72,1766.96 3168,1767.5C 3166,1767.5 3164,1767.5 3162,1767.5C 3160.62,1766.74 3160.45,1766.08 3161.5,1765.5C 3161.5,1751.2 3161.5,1736.87 3161.5,1722.5C 3167.58,1722.31 3173.74,1721.97 3180,1721.5C 3185.52,1721.56 3190.19,1723.56 3194,1727.5C 3194.79,1728.74 3195.29,1730.08 3195.5,1731.5 Z M 3170.5,1728.5 C 3174.18,1728.33 3177.85,1728.5 3181.5,1729C 3187.53,1730.9 3189.03,1734.74 3186,1740.5C 3184.27,1741.46 3182.44,1742.13 3180.5,1742.5C 3177.17,1742.5 3173.83,1742.5 3170.5,1742.5C 3170.5,1737.83 3170.5,1733.17 3170.5,1728.5 Z"/></g>
<g><path style="opacity:0.5" fill="#100f11" d="M 3170.5,1728.5 C 3170.5,1733.17 3170.5,1737.83 3170.5,1742.5C 3173.83,1742.5 3177.17,1742.5 3180.5,1742.5C 3180.61,1743.12 3180.94,1743.62 3181.5,1744C 3177.04,1744.95 3172.7,1745.11 3168.5,1744.5C 3168.33,1738.82 3168.5,1733.16 3169,1727.5C 3169.38,1728.06 3169.88,1728.39 3170.5,1728.5 Z"/></g>
<g><path style="opacity:0.527" fill="#131114" d="M 3195.5,1731.5 C 3197.82,1738.54 3195.48,1743.54 3188.5,1746.5C 3187.21,1747.5 3185.88,1747.33 3184.5,1746C 3187.44,1744.69 3190.27,1743.19 3193,1741.5C 3194,1738.09 3194.83,1734.76 3195.5,1731.5 Z"/></g>
<g><path style="opacity:0.557" fill="#262426" d="M 3218.5,1737.5 C 3218.5,1738.5 3218.5,1739.5 3218.5,1740.5C 3217.31,1740.13 3216.64,1739.3 3216.5,1738C 3216.68,1736.32 3217.35,1736.15 3218.5,1737.5 Z"/></g>
<g><path style="opacity:0.483" fill="#100f11" d="M 3170.5,1749.5 C 3170.82,1755.03 3170.49,1760.36 3169.5,1765.5C 3168.35,1759.68 3168.18,1753.68 3169,1747.5C 3169.28,1748.42 3169.78,1749.08 3170.5,1749.5 Z"/></g>
<g><path style="opacity:0.557" fill="#262426" d="M 3218.5,1748.5 C 3218.5,1749.5 3218.5,1750.5 3218.5,1751.5C 3217.88,1751.61 3217.38,1751.94 3217,1752.5C 3216.23,1750.65 3216.73,1749.31 3218.5,1748.5 Z"/></g>
<g><path style="opacity:0.467" fill="#100f11" d="M 3188.5,1776.5 C 3188.39,1777.12 3188.06,1777.62 3187.5,1778C 3184.4,1778.92 3181.24,1779.42 3178,1779.5C 3175.13,1779.7 3172.63,1779.03 3170.5,1777.5C 3176.15,1778.4 3182.15,1778.06 3188.5,1776.5 Z"/></g>
<g><path style="opacity:0.557" fill="#221f22" d="M 1271.5,1788.5 C 1269.51,1892.29 1268.84,1996.29 1269.5,2100.5C 1510,2100.17 1750.33,2100.5 1990.5,2101.5C 1749.5,2101.67 1508.5,2101.5 1267.5,2101C 1268.83,1997.67 1268.83,1894.33 1267.5,1791C 1268.33,1789.5 1269.5,1788.33 1271,1787.5C 1271.4,1787.73 1271.57,1788.06 1271.5,1788.5 Z"/></g>
<g><path style="opacity:1" fill="#1a171a" d="M 763.5,1893.5 C 763.565,1893.94 763.399,1894.27 763,1894.5C 761.913,1892.07 761.413,1892.4 761.5,1895.5C 860.502,1895.83 959.502,1895.5 1058.5,1894.5C 1057.8,1894.21 1057.13,1893.88 1056.5,1893.5C 1056.17,1858.49 1056.5,1823.49 1057.5,1788.5C 1103.37,1788.25 1149.2,1787.92 1195,1787.5C 1195.72,1788.04 1196.22,1788.71 1196.5,1789.5C 1195.83,1893.07 1195.16,1996.74 1194.5,2100.5C 1148.83,2100.5 1103.17,2100.5 1057.5,2100.5C 1057.5,2059.5 1057.5,2018.5 1057.5,1977.5C 959.167,1976.17 860.833,1976.17 762.5,1977.5C 762.5,2017.83 762.5,2058.17 762.5,2098.5C 716.572,2099.49 670.572,2099.83 624.5,2099.5C 624.154,2019.33 623.487,1939.33 622.5,1859.5C 622.011,1835.35 622.511,1811.35 624,1787.5C 671.024,1788.19 717.024,1788.19 762,1787.5C 763.493,1822.69 763.993,1858.02 763.5,1893.5 Z"/></g>
<g><path style="opacity:0.463" fill="#100e11" d="M 1196.5,1789.5 C 1197.83,1893.17 1197.83,1996.83 1196.5,2100.5C 1195.83,2100.5 1195.17,2100.5 1194.5,2100.5C 1195.16,1996.74 1195.83,1893.07 1196.5,1789.5 Z"/></g>
<g><path style="opacity:1" fill="#19161a" d="M 1840.5,1789.5 C 1839.82,1813.07 1839.16,1836.74 1838.5,1860.5C 1695.42,1860.65 1552.26,1860.65 1409,1860.5C 1408.5,1876.83 1408.33,1893.16 1408.5,1909.5C 1551.43,1910.5 1695.1,1910.83 1839.5,1910.5C 1839.5,1933.5 1839.5,1956.5 1839.5,1979.5C 1695.5,1978.83 1551.83,1979.5 1408.5,1981.5C 1408.5,1997.5 1408.5,2013.5 1408.5,2029.5C 1552,2030.5 1695.67,2030.83 1839.5,2030.5C 1839.64,2042.91 1839.31,2054.41 1838.5,2065C 1839.09,2065.46 1839.76,2065.63 1840.5,2065.5C 1840.33,2072.84 1840.5,2080.17 1841,2087.5C 1913.69,1988.31 1986.19,1888.97 2058.5,1789.5C 2139.81,1788.6 2218.64,1787.94 2295,1787.5C 2297.24,1788.06 2299.24,1789.06 2301,1790.5C 2372.76,1889.05 2444.26,1987.72 2515.5,2086.5C 2515.08,2088.34 2515.91,2090.01 2518,2091.5C 2518.5,2091 2519,2090.5 2519.5,2090C 2518.83,1989.74 2518.17,1889.57 2517.5,1789.5C 2518.17,1788.73 2519.01,1788.07 2520,1787.5C 2680,1787.17 2840.5,1787.5 3001.5,1788.5C 3000.05,1789.3 2998.38,1789.8 2996.5,1790C 3000.36,1790.81 3004.02,1790.64 3007.5,1789.5C 3042.85,1791.81 3072.69,1806.15 3097,1832.5C 3101.6,1838.05 3105.44,1844.05 3108.5,1850.5C 3110.09,1855.72 3112.42,1861.06 3115.5,1866.5C 3115.96,1867.3 3116.62,1867.63 3117.5,1867.5C 3125.42,1884.27 3130.09,1901.94 3131.5,1920.5C 3130.36,1923.3 3130.2,1926.3 3131,1929.5C 3131.28,1928.58 3131.78,1927.92 3132.5,1927.5C 3135.72,1972.26 3125.55,2013.59 3102,2051.5C 3078.27,2080.79 3047.43,2097.12 3009.5,2100.5C 3008.21,2099.84 3006.71,2099.51 3005,2099.5C 3003.01,2099.57 3001.51,2100.24 3000.5,2101.5C 2789.17,2101.83 2577.83,2101.5 2366.5,2100.5C 2354.09,2084.09 2342.09,2067.43 2330.5,2050.5C 2280.74,2049.83 2230.24,2049.5 2179,2049.5C 2127.83,2049.5 2077,2050.17 2026.5,2051.5C 2014.88,2068.45 2002.88,2085.12 1990.5,2101.5C 1750.33,2100.5 1510,2100.17 1269.5,2100.5C 1268.84,1996.29 1269.51,1892.29 1271.5,1788.5C 1460.69,1787.87 1649.85,1787.54 1839,1787.5C 1839.72,1788.04 1840.22,1788.71 1840.5,1789.5 Z M 2277.5,1978.5 C 2212.12,1978.93 2146.62,1979.26 2081,1979.5C 2080.53,1978.42 2080.7,1977.42 2081.5,1976.5C 2107.58,1940.57 2133.92,1904.73 2160.5,1869C 2173.14,1869.22 2185.64,1869.06 2198,1868.5C 2224.26,1905.37 2250.76,1942.04 2277.5,1978.5 Z M 2958.5,1887.5 C 2970.23,1888.03 2980.06,1892.69 2988,1901.5C 2995.38,1913.91 2999.55,1927.24 3000.5,1941.5C 3000.36,1945.14 3000.36,1948.48 3000.5,1951.5C 2999.19,1964.59 2995.36,1976.92 2989,1988.5C 2982.14,1996.85 2973.31,2001.52 2962.5,2002.5C 2860.96,2002.51 2759.63,2002.51 2658.5,2002.5C 2658.5,1964.5 2658.5,1926.5 2658.5,1888.5C 2758.54,1887.5 2858.54,1887.17 2958.5,1887.5 Z"/></g>
<g><path style="opacity:0.617" fill="#100f11" d="M 3001.5,1788.5 C 3003.62,1788.33 3005.62,1788.66 3007.5,1789.5C 3004.02,1790.64 3000.36,1790.81 2996.5,1790C 2998.38,1789.8 3000.05,1789.3 3001.5,1788.5 Z"/></g>
<g><path style="opacity:0.739" fill="#110f12" d="M 1840.5,1789.5 C 1840.67,1813.17 1840.5,1836.84 1840,1860.5C 1839.31,1861.74 1838.81,1861.74 1838.5,1860.5C 1839.16,1836.74 1839.82,1813.07 1840.5,1789.5 Z"/></g>
<g><path style="opacity:0.506" fill="#100f11" d="M 2517.5,1789.5 C 2518.17,1889.57 2518.83,1989.74 2519.5,2090C 2519,2090.5 2518.5,2091 2518,2091.5C 2515.91,2090.01 2515.08,2088.34 2515.5,2086.5C 2516.22,2084.78 2516.89,2082.95 2517.5,2081C 2516.21,1983.73 2516.21,1886.57 2517.5,1789.5 Z"/></g>
<g><path style="opacity:0.6" fill="#151315" d="M 3108.5,1850.5 C 3112.26,1855.68 3115.26,1861.35 3117.5,1867.5C 3116.62,1867.63 3115.96,1867.3 3115.5,1866.5C 3112.42,1861.06 3110.09,1855.72 3108.5,1850.5 Z"/></g>
<g><path style="opacity:0.834" fill="#110f12" d="M 622.5,1859.5 C 623.487,1939.33 624.154,2019.33 624.5,2099.5C 624.5,2099.83 624.5,2100.17 624.5,2100.5C 623.833,2100.5 623.167,2100.5 622.5,2100.5C 622.5,2020.17 622.5,1939.83 622.5,1859.5 Z"/></g>
<g><path style="opacity:0.557" fill="#262326" d="M 2958.5,1887.5 C 2858.54,1887.17 2758.54,1887.5 2658.5,1888.5C 2657.96,1888.44 2657.62,1888.11 2657.5,1887.5C 2707.83,1887.17 2758.17,1886.83 2808.5,1886.5C 2859.24,1886.5 2909.24,1886.83 2958.5,1887.5 Z"/></g>
<g><path style="opacity:0.649" fill="#161417" d="M 763.5,1893.5 C 861.167,1893.5 958.833,1893.5 1056.5,1893.5C 1057.13,1893.88 1057.8,1894.21 1058.5,1894.5C 959.502,1895.5 860.502,1895.83 761.5,1895.5C 761.413,1892.4 761.913,1892.07 763,1894.5C 763.399,1894.27 763.565,1893.94 763.5,1893.5 Z"/></g>
<g><path style="opacity:0.54" fill="#100f11" d="M 1408.5,1981.5 C 1551.83,1979.5 1695.5,1978.83 1839.5,1979.5C 1839.5,1956.5 1839.5,1933.5 1839.5,1910.5C 1695.1,1910.83 1551.43,1910.5 1408.5,1909.5C 1552.43,1908.5 1696.43,1908.17 1840.5,1908.5C 1840.5,1932.83 1840.5,1957.17 1840.5,1981.5C 1696.5,1981.5 1552.5,1981.5 1408.5,1981.5 Z"/></g>
<g><path style="opacity:0.554" fill="#100f11" d="M 3131.5,1920.5 C 3132.37,1922.72 3132.7,1925.05 3132.5,1927.5C 3131.78,1927.92 3131.28,1928.58 3131,1929.5C 3130.2,1926.3 3130.36,1923.3 3131.5,1920.5 Z"/></g>
<g><path style="opacity:0.557" fill="#252225" d="M 3000.5,1951.5 C 3000.36,1948.48 3000.36,1945.14 3000.5,1941.5C 3001.8,1944.24 3001.8,1947.58 3000.5,1951.5 Z"/></g>
<g><path style="opacity:0.51" fill="#100f11" d="M 762.5,1977.5 C 860.833,1976.17 959.167,1976.17 1057.5,1977.5C 1056.83,1977.5 1056.5,1977.83 1056.5,1978.5C 958.833,1978.5 861.167,1978.5 763.5,1978.5C 763.5,1977.83 763.167,1977.5 762.5,1977.5 Z"/></g>
<g><path style="opacity:0.556" fill="#100f11" d="M 2081.5,1976.5 C 2080.7,1977.42 2080.53,1978.42 2081,1979.5C 2146.62,1979.26 2212.12,1978.93 2277.5,1978.5C 2278.76,1978.46 2279.76,1978.96 2280.5,1980C 2212.83,1980.67 2145.17,1980.67 2077.5,1980C 2078.74,1978.61 2080.07,1977.45 2081.5,1976.5 Z"/></g>
<g><path style="opacity:0.463" fill="#100f11" d="M 2658.5,2002.5 C 2759.63,2002.51 2860.96,2002.51 2962.5,2002.5C 2961.05,2003.3 2959.38,2003.8 2957.5,2004C 2857.17,2004.83 2756.83,2004.67 2656.5,2003.5C 2657.2,2003.21 2657.87,2002.88 2658.5,2002.5 Z"/></g>
<g><path style="opacity:0.557" fill="#211e21" d="M 1840.5,2030.5 C 1840.17,2030.5 1839.83,2030.5 1839.5,2030.5C 1695.67,2030.83 1552,2030.5 1408.5,2029.5C 1551.79,2029.79 1694.96,2029.46 1838,2028.5C 1838.99,2029.07 1839.83,2029.73 1840.5,2030.5 Z"/></g>
<g><path style="opacity:0.751" fill="#100f11" d="M 1839.5,2030.5 C 1839.83,2030.5 1840.17,2030.5 1840.5,2030.5C 1840.5,2042.17 1840.5,2053.83 1840.5,2065.5C 1839.76,2065.63 1839.09,2065.46 1838.5,2065C 1839.31,2054.41 1839.64,2042.91 1839.5,2030.5 Z"/></g>
<g><path style="opacity:0.518" fill="#100f11" d="M 2330.5,2050.5 C 2229.28,2051.39 2127.94,2051.73 2026.5,2051.5C 2077,2050.17 2127.83,2049.5 2179,2049.5C 2230.24,2049.5 2280.74,2049.83 2330.5,2050.5 Z"/></g>
<g><path style="opacity:0.969" fill="#060507" d="M 762.5,2098.5 C 716.845,2100.5 670.845,2101.16 624.5,2100.5C 624.5,2100.17 624.5,2099.83 624.5,2099.5C 670.572,2099.83 716.572,2099.49 762.5,2098.5 Z"/></g>
<g><path style="opacity:0.54" fill="#100f11" d="M 3009.5,2100.5 C 3006.57,2101.3 3003.57,2101.63 3000.5,2101.5C 3001.51,2100.24 3003.01,2099.57 3005,2099.5C 3006.71,2099.51 3008.21,2099.84 3009.5,2100.5 Z"/></g>
<g><path style="opacity:0.557" fill="#262326" d="M 762.5,1977.5 C 763.167,1977.5 763.5,1977.83 763.5,1978.5C 763.5,2019.5 763.5,2060.5 763.5,2101.5C 716.33,2101.83 669.33,2101.5 622.5,2100.5C 623.167,2100.5 623.833,2100.5 624.5,2100.5C 670.845,2101.16 716.845,2100.5 762.5,2098.5C 762.5,2058.17 762.5,2017.83 762.5,1977.5 Z"/></g>
<g><path style="opacity:0.557" fill="#262326" d="M 1057.5,1977.5 C 1057.5,2018.5 1057.5,2059.5 1057.5,2100.5C 1103.17,2100.5 1148.83,2100.5 1194.5,2100.5C 1195.17,2100.5 1195.83,2100.5 1196.5,2100.5C 1150,2101.5 1103.34,2101.83 1056.5,2101.5C 1056.5,2060.5 1056.5,2019.5 1056.5,1978.5C 1056.5,1977.83 1056.83,1977.5 1057.5,1977.5 Z"/></g>
</svg>
