<svg width="137px" style="margin: 7px 0" version="1.1" xmlns="http://www.w3.org/2000/svg" viewBox="0 0 377.04 113.07">
<style>
	.st0{fill-rule:evenodd;clip-rule:evenodd;fill:currentColor;}
	.st1{fill-rule:evenodd;clip-rule:evenodd;fill:currentColor;}
</style>
<g>
	<g>
		<path class="st0" d="M125.02,38.02c-8.54,0-14.91,1.44-22.72,5.25c-11.75,5.78-64.81,32.24-64.81,32.24h22.52l29.81-14.91
			l30.4,14.91h21.87l-41.5-20.49c0,0,7.94-4.14,13.59-7.03c4.2-2.1,7.88-3.41,11.43-3.74c1.96-0.21,4.72-0.27,7.11-0.27
			c2.73,0,4.97,0.07,4.97,0.07l7.03-6.04H125.02z"></path>
		<polygon class="st1" points="161.2,38.02 154.9,75.51 163.5,75.51 166.06,60.35 181.63,60.35 179.13,75.51 187.8,75.51 
			194.04,38.02 185.43,38.02 183,52.4 167.38,52.4 169.81,38.02 		"></polygon>
		<polygon class="st1" points="199.68,38.02 193.44,75.51 202.11,75.51 206.05,51.81 218.99,75.51 227.59,75.51 233.89,38.02 
			225.23,38.02 221.35,61.13 208.81,38.02"></polygon>
		<path class="st1" d="M239.54,38.02l-1.38,8.14h12.34c2.23,0,4.14,0.46,5.71,1.31c1.58,0.85,2.76,2.04,3.42,3.55
			c0.72,1.51,0.92,3.22,0.59,5.19c-0.2,1.64-0.79,3.09-1.57,4.46c-0.85,1.38-1.91,2.56-3.15,3.55c-1.25,1.05-2.63,1.84-4.14,2.36
			s-3.09,0.79-4.73,0.79h-12.02l-1.31,8.14h12.28c2.95,0,5.78-0.46,8.47-1.31c2.63-0.92,4.99-2.17,7.03-3.81s3.74-3.55,5.12-5.71
			c1.38-2.23,2.3-4.73,2.76-7.35c0.66-3.74,0.33-7.09-0.99-9.98c-1.31-2.82-3.35-5.12-6.11-6.76c-2.82-1.71-6.11-2.56-10.05-2.56
			H239.54z"></path>
		<path class="st1" d="M275.72,38.02l-6.24,37.49h8.6l2.1-12.54h4.6l5.19,12.54h9.65l-6.11-13.99c2.36-0.92,4.33-2.36,5.84-4.2
			c1.58-1.84,2.56-4.01,2.95-6.37c0.46-2.49,0.2-4.73-0.72-6.7c-0.92-1.97-2.36-3.48-4.27-4.6c-1.97-1.12-4.33-1.64-7.09-1.64
			H275.72z M289.05,45.9c1.44,0,2.56,0.39,3.35,1.12c0.79,0.72,1.18,1.64,1.12,2.82c-0.06,1.12-0.39,2.04-0.92,2.82
			c-0.59,0.79-1.38,1.38-2.3,1.77c-0.92,0.39-1.97,0.59-3.15,0.59h-5.58l1.44-9.13H289.05z"></path>
		<path class="st1" d="M309.21,38.02l-6.31,37.49h12.28c3.02,0,5.84-0.39,8.47-1.31c2.69-0.92,4.99-2.17,7.09-3.81
			c2.04-1.58,3.74-3.55,5.12-5.71c1.31-2.23,2.23-4.66,2.69-7.35c0.66-3.74,0.33-7.09-0.92-9.98c-1.31-2.82-3.35-5.12-6.11-6.76
			c-2.82-1.71-6.17-2.56-10.05-2.56H309.21z"></path>
	</g>
</g>
</svg>