<?xml version="1.0" encoding="UTF-8" standalone="no"?>
<!-- Created with Inkscape (http://www.inkscape.org/) -->
<svg
   xmlns:svg="http://www.w3.org/2000/svg"
   xmlns="http://www.w3.org/2000/svg"
   version="1.0"
   width="768.57141"
   height="191.42857"
   id="svg6984">
  <defs
     id="defs6986" />
  <g
     transform="translate(374.28571,-360.93362)"
     id="layer1">
    <path
       d="M -296.98533,371.16795 L -359.66152,371.16795 L -359.66152,399.50961 L -341.21695,399.50961 L -341.21695,485.37004 C -341.21695,485.37004 -341.21695,539.03281 -284.51757,539.03281 C -284.51757,539.03281 -260.48179,539.48268 -246.31096,519.70457 C -246.31096,519.70457 -234.27701,539.03281 -211.54263,539.03281 C -211.54263,539.03281 -190.02932,541.20181 -175.45683,527.88252 C -175.45683,527.88252 -145.3639,507.70275 -145.82984,445.42823 C -145.82984,445.42823 -146.69744,398.65807 -157.84773,371.16795 L -209.45396,371.16795 L -209.45396,399.50961 L -193.91746,399.50961 C -193.91746,399.50961 -185.73951,422.69385 -185.73951,452.32084 C -185.73951,452.32084 -184.83978,470.07454 -193.91746,488.80831 C -193.91746,488.80831 -199.46047,502.14367 -211.54263,502.14367 C -211.54263,502.14367 -222.24305,501.6938 -221.84138,488.80831 L -221.84138,371.16795 L -284.51757,371.16795 L -284.51757,399.50961 L -266.04087,399.50961 L -266.04087,486.70358 C -266.04087,486.70358 -266.04087,502.14367 -281.48097,502.14367 C -281.48097,502.14367 -296.98533,502.12761 -296.98533,486.70358 L -296.98533,371.16795"
       id="path117"
       style="fill:#ed1a3a;fill-opacity:1;fill-rule:nonzero;stroke:none" />
    <path
       d="M -106.64329,383.94098 C -106.64329,383.94098 -80.583106,383.94098 -80.583106,404.12075 C -80.583106,404.12075 -80.470639,424.30053 -106.64329,424.30053 C -106.64329,424.30053 -132.86414,424.30053 -132.86414,404.12075 C -132.86414,404.12075 -133.05694,383.94098 -106.64329,383.94098"
       id="path121"
       style="fill:#ed1a3a;fill-opacity:1;fill-rule:nonzero;stroke:none" />
    <path
       d="M -137.66795,427.85126 L -86.607984,427.85126 L -86.607984,495.49206 C -86.607984,495.49206 -86.607984,503.22014 -79.490437,503.22014 C -79.490437,503.22014 -70.685886,502.15974 -65.544543,493.74079 C -65.544543,493.74079 -57.800394,483.87584 -57.800394,475.73002 L -57.800394,393.95053 C -57.800394,393.95053 -56.739992,364.32354 -17.039181,364.32354 C -17.039181,364.32354 22.484896,363.0382 22.484896,401.45368 C 22.484896,401.45368 24.669967,419.46444 10.049271,445.25149 C 10.049271,445.25149 3.6065255,457.25332 -3.7198888,468.22687 C -3.7198888,468.22687 -9.070099,476.54942 -14.227509,483.87584 C -14.227509,483.87584 -18.308451,488.40664 -18.308451,494.20672 C -18.308451,494.20672 -18.758318,503.86281 -8.427431,503.86281 C -8.427431,503.86281 0.602053,503.65394 7.6553334,495.90979 C 7.6553334,495.90979 18.211154,486.04484 23.770232,470.17094 C 23.770232,470.17094 32.574782,451.03551 32.992516,427.85126 L 70.572523,427.85126 C 70.572523,427.85126 70.765323,431.48233 71.873925,435.37047 C 71.873925,435.37047 73.159261,441.15449 80.694543,451.48537 C 80.694543,451.48537 91.202163,466.50774 94.431569,472.08288 C 94.431569,472.08288 102.35245,483.87584 102.35245,498.72146 C 102.35245,498.72146 102.14358,513.51889 91.796631,523.81765 C 91.796631,523.81765 80.228608,538.22948 63.278242,538.22948 C 63.278242,538.22948 51.469219,538.22948 40.961598,532.39726 C 40.961598,532.39726 28.06004,525.52072 22.484896,517.79264 C 22.484896,517.79264 21.890428,516.9411 20.380158,516.9411 L 18.291487,517.8569 C 18.291487,517.8569 10.643739,525.97058 2.5300567,530.45319 C 2.5300567,530.45319 -8.218564,538.22948 -23.867528,538.22948 C -23.867528,538.22948 -38.070489,538.22948 -46.634039,530.03546 C -46.634039,530.03546 -54.153254,523.81765 -55.663523,516.5073 L -57.254127,515.28623 L -59.101797,516.42697 C -59.101797,516.42697 -65.75341,524.26751 -74.140226,530.03546 C -74.140226,530.03546 -83.153644,538.22948 -99.04361,538.22948 C -99.04361,538.22948 -113.4233,538.42228 -120.95858,530.71026 C -120.95858,530.71026 -129.2972,523.38385 -129.2972,512.24962 L -129.2972,452.75464 C -129.2972,452.75464 -128.89553,447.16343 -137.66795,447.16343 L -137.66795,427.85126 z M 39.451329,485.81991 C 37.732192,490.23825 35.354321,495.05826 35.354321,495.05826 L 34.518852,497.72533 C 34.711653,499.20347 35.466788,500.537 35.466788,500.537 C 37.394791,503.68607 40.206464,505.38914 40.206464,505.38914 C 43.114536,507.71882 47.950612,507.71882 47.950612,507.71882 C 53.79889,507.71882 56.610562,503.12374 56.610562,503.12374 C 59.534701,499.12313 59.534701,494.73692 59.534701,494.73692 C 59.534701,491.84492 57.381764,487.87644 57.381764,487.87644 C 55.742961,484.43817 52.449287,478.22036 52.449287,478.22036 C 50.48915,475.00702 48.59328,470.92608 48.59328,470.92608 C 47.661411,468.53214 46.79381,468.86954 46.79381,468.86954 L 45.13894,471.34381 C 42.054134,479.92343 39.451329,485.81991 39.451329,485.81991 z M -17.794316,447.54903 L -16.059113,445.57283 C -8.732699,435.03307 -3.2700212,415.41564 -3.2700212,415.41564 C -1.5669512,409.96903 -1.3741509,402.40161 -1.3741509,402.40161 C -1.3741509,397.56553 -3.2700212,392.85799 -3.2700212,392.85799 C -5.5836257,388.15045 -8.957632,388.23078 -8.957632,388.23078 C -13.311707,388.23078 -16.589314,394.06299 -16.589314,394.06299 C -19.609853,399.0276 -19.609853,407.88035 -19.609853,407.88035 L -19.609853,444.14289 C -19.609853,449.2039 -17.794316,447.54903 -17.794316,447.54903"
       id="path125"
       style="fill:#ed1a3a;fill-opacity:1;fill-rule:nonzero;stroke:none" />
    <path
       d="M 105.14805,481.94783 C 105.14805,481.94783 105.98352,455.32531 121.88955,441.60435 C 121.88955,441.60435 137.34571,426.11605 162.04023,426.11605 C 162.04023,426.11605 186.71868,426.34099 200.05404,440.07802 C 200.05404,440.07802 204.13498,443.93402 206.28791,447.16343 C 206.28791,447.16343 207.79818,448.88257 209.06745,447.3723 C 209.06745,447.3723 217.02047,438.15001 222.14574,434.7278 C 222.14574,434.7278 232.66943,425.92325 244.46239,425.92325 C 244.46239,425.92325 254.16667,425.68225 259.50082,430.85573 C 259.50082,430.85573 265.9757,436.23807 269.2051,442.88969 C 269.2051,442.88969 270.90817,445.66923 273.46278,443.09855 C 273.46278,443.09855 278.82906,437.26634 285.06293,433.00867 C 285.06293,433.00867 295.13675,425.26452 309.35578,425.26452 C 309.35578,425.26452 322.00027,425.68225 327.99315,431.6912 C 327.99315,431.6912 338.50077,440.07802 338.50077,451.69424 L 338.50077,511.38202 C 338.50077,511.38202 338.50077,518.66023 344.95958,518.85304 L 351.4184,518.85304 L 351.4184,537.32974 L 316.81073,537.32974 C 316.81073,537.32974 296.02042,537.1048 296.02042,514.37043 L 296.02042,471.63301 C 296.02042,471.63301 296.02042,462.61959 284.85407,462.61959 C 284.85407,462.61959 272.38631,462.86059 272.38631,473.15935 L 272.38631,537.32974 L 229.90596,537.32974 L 229.90596,471.42414 C 229.90596,471.42414 229.66496,465.20633 224.74855,465.20633 C 224.74855,465.20633 220.23381,465.849 217.64707,469.09447 C 217.64707,469.09447 215.54233,471.00641 216.58667,474.01088 C 216.58667,474.01088 217.4382,478.50956 217.4382,483.68303 C 217.4382,483.68303 217.64707,507.91161 202.23911,522.09851 C 202.23911,522.09851 187.18461,538.21341 162.24909,538.21341 C 162.24909,538.21341 137.57065,538.21341 123.39982,524.04258 C 123.39982,524.04258 105.14805,509.24515 105.14805,481.94783 z M 161.41363,509.38975 C 161.41363,509.38975 168.48297,509.71108 171.05365,504.24841 C 171.05365,504.24841 174.04205,498.43226 174.73292,482.12456 L 174.73292,481.94783 C 174.04205,465.64013 171.05365,459.85612 171.05365,459.85612 C 168.48297,454.37738 161.41363,454.71478 161.41363,454.71478 L 161.20476,454.71478 C 161.20476,454.71478 154.10328,454.37738 151.51654,459.85612 C 151.51654,459.85612 148.52813,465.64013 147.85333,481.94783 L 147.85333,482.12456 C 148.52813,498.43226 151.51654,504.24841 151.51654,504.24841 C 154.10328,509.71108 161.20476,509.38975 161.20476,509.38975 L 161.41363,509.38975"
       id="path129"
       style="fill:#ed1a3a;fill-opacity:1;fill-rule:nonzero;stroke:none" />
    <path
       d="M 370.08789,518.64417 C 372.64249,518.64417 374.8115,519.52784 376.5949,521.34338 C 378.41044,523.12678 379.27804,525.27972 379.27804,527.81825 C 379.27804,530.38893 378.41044,532.55793 376.5949,534.3574 C 374.82757,536.1408 372.65856,537.02447 370.08789,537.02447 C 367.54935,537.02447 365.36428,536.1408 363.61301,534.3574 C 361.84567,532.55793 360.97807,530.38893 360.97807,527.81825 C 360.97807,525.27972 361.84567,523.12678 363.61301,521.34338 C 365.41248,519.52784 367.58149,518.64417 370.08789,518.64417 z M 380.80438,527.81825 C 380.80438,524.87805 379.76004,522.35558 377.7035,520.29904 C 375.5827,518.22644 373.09236,517.1821 370.13609,517.1821 C 367.19588,517.1821 364.67341,518.22644 362.63294,520.29904 C 360.54427,522.38771 359.48387,524.87805 359.48387,527.81825 C 359.48387,530.77453 360.54427,533.26487 362.60081,535.35354 C 364.65735,537.44221 367.17982,538.48654 370.13609,538.48654 C 373.09236,538.48654 375.5827,537.44221 377.7035,535.35354 C 379.76004,533.26487 380.80438,530.77453 380.80438,527.81825 z M 372.9799,525.52072 L 371.77489,527.28805 L 369.78262,527.59332 L 367.87069,527.59332 L 367.87069,523.38385 L 369.65409,523.38385 L 372.20869,523.81765 L 372.9799,525.52072 z M 365.84628,521.90571 L 365.84628,533.61833 L 367.87069,533.61833 L 367.87069,529.02326 L 369.50949,529.02326 L 371.83916,529.39279 L 372.96383,532.05986 L 372.96383,532.99173 L 372.9799,533.3934 L 373.01203,533.50587 L 373.04416,533.61833 L 374.9561,533.61833 L 374.9079,533.4898 L 374.77937,532.8632 L 374.77937,531.97953 L 374.77937,531.12799 L 374.12063,529.34459 L 372.14443,528.18779 L 373.83143,527.64152 L 374.9561,525.31185 C 374.9561,523.84978 374.3295,522.85364 373.14056,522.35558 C 372.46576,522.08244 371.40536,521.90571 369.91116,521.90571 L 365.84628,521.90571"
       id="path133"
       style="fill:#ed1a3a;fill-opacity:1;fill-rule:nonzero;stroke:none" />
  </g>
</svg>
